<svg width="1512" height="982" viewBox="0 0 1512 982" fill="none" xmlns="http://www.w3.org/2000/svg">
<g clip-path="url(#clip0_42_787)">
<rect width="1512" height="982" fill="black"/>
<rect width="1512" height="982" fill="white"/>
<rect width="1511" height="982" fill="white"/>
<rect width="1511" height="982" fill="url(#paint0_linear_42_787)"/>
<g filter="url(#filter0_d_42_787)">
<path d="M1357.8 982C1070.51 422.518 1665.77 501.337 1357.8 0H2050.5C2298.83 600.829 1905.9 365.333 2176 970.038L1357.8 982Z" fill="white"/>
</g>
<mask id="mask0_42_787" style="mask-type:alpha" maskUnits="userSpaceOnUse" x="0" y="0" width="1377" height="1080">
<rect width="1376.83" height="1080" fill="#C4C4C4"/>
</mask>
<g mask="url(#mask0_42_787)">
<path d="M2549.58 286.658L2549.58 286.158H2549.58L2549.58 286.658ZM2394.56 286.658L2394.56 287.158L2394.56 287.158L2394.56 286.658ZM2239.54 286.658L2239.54 286.158H2239.54V286.658ZM2084.53 286.658L2084.53 287.158H2084.53V286.658ZM1929.51 286.658L1929.51 286.158L1929.51 286.158L1929.51 286.658ZM1774.5 286.658L1774.5 287.158L1774.5 287.158L1774.5 286.658ZM1619.48 286.658L1619.48 287.158H1619.48V286.658ZM1309.45 286.658L1309.45 286.158L1309.45 286.158L1309.45 286.658ZM1154.43 286.658L1154.43 287.158L1154.43 287.158L1154.43 286.658ZM999.418 286.658L999.418 286.158H999.418V286.658ZM844.402 286.658L844.402 286.158L844.402 286.158L844.402 286.658ZM689.386 286.658L689.386 286.158L689.386 286.658ZM534.37 286.658L534.37 287.158L534.37 287.158L534.37 286.658ZM379.354 286.658L379.354 286.158H379.354V286.658ZM-85.6936 286.658L-85.6936 287.158H-85.6936V286.658ZM-240.71 286.658L-240.71 286.158L-240.71 286.158L-240.71 286.658ZM-395.725 286.658L-395.725 287.158L-395.725 287.158L-395.725 286.658ZM2549.58 224.464L2550.08 224.464L2549.58 224.464ZM689.386 108.555L688.886 108.555L689.386 108.555ZM2549.58 173.358L2549.08 173.358L2549.58 173.358ZM689.386 137.147L688.886 137.147L689.386 137.147ZM2225.14 23.3464H2098.93V24.3464H2225.14V23.3464ZM2372.96 52.1477H2253.95V53.1477H2372.96V52.1477ZM2472.07 95.3496H2416.16V96.3496H2472.07V95.3496ZM2550.08 224.464L2550.08 173.358L2549.08 173.358L2549.08 224.464L2550.08 224.464ZM2601.63 277.013H2648.6V276.013H2601.63V277.013ZM2648.6 286.158H2549.58V287.158H2648.6V286.158ZM2394.56 287.158L2549.58 287.158L2549.58 286.158L2394.56 286.158L2394.56 287.158ZM2239.54 287.158L2394.56 287.158L2394.56 286.158L2239.54 286.158L2239.54 287.158ZM2084.53 287.158H2239.54V286.158H2084.53V287.158ZM1929.51 287.158L2084.53 287.158L2084.53 286.158L1929.51 286.158L1929.51 287.158ZM1774.5 287.158L1929.51 287.158L1929.51 286.158L1774.5 286.158L1774.5 287.158ZM1619.48 287.158H1774.5V286.158H1619.48V287.158ZM1464.47 287.158L1619.48 287.158L1619.48 286.158L1464.47 286.158L1464.47 287.158ZM1309.45 287.158L1464.47 287.158L1464.47 286.158L1309.45 286.158L1309.45 287.158ZM1154.43 287.158L1309.45 287.158L1309.45 286.158L1154.43 286.158L1154.43 287.158ZM999.418 287.158L1154.43 287.158L1154.43 286.158L999.418 286.158L999.418 287.158ZM844.402 287.158H999.418V286.158H844.402V287.158ZM689.386 287.158L844.402 287.158L844.402 286.158L689.386 286.158L689.386 287.158ZM534.37 287.158L689.386 287.158L689.386 286.158L534.37 286.158L534.37 287.158ZM379.354 287.158L534.37 287.158L534.37 286.158L379.354 286.158L379.354 287.158ZM224.338 287.158H379.354V286.158H224.338V287.158ZM69.3223 287.158H224.338V286.158H69.3223V287.158ZM-85.6936 287.158H69.3223V286.158H-85.6936V287.158ZM-240.71 287.158L-85.6936 287.158L-85.6936 286.158L-240.71 286.158L-240.71 287.158ZM-395.725 287.158L-240.71 287.158L-240.71 286.158L-395.725 286.158L-395.725 287.158ZM-550.741 287.158H-395.725V286.158H-550.741V287.158ZM-705.757 287.158H-550.741V286.158H-705.757V287.158ZM-804.783 287.158H-705.757V286.158H-804.783V287.158ZM-757.806 276.013H-804.783V277.013H-757.806V276.013ZM-706.257 155.357V224.464H-705.257V155.357H-706.257ZM-584.943 77.3488H-628.249V78.3488H-584.943V77.3488ZM-426.327 145.752H-516.54V146.752H-426.327V145.752ZM-301.912 84.5491H-365.124V85.5491H-301.912V84.5491ZM-159.497 206.955H-179.507V207.955H-159.497V206.955ZM62.122 59.348H-11.8904V60.348H62.122V59.348ZM220.738 73.7487H76.5226V74.7487H220.738V73.7487ZM366.754 66.5483H227.938V67.5483H366.754V66.5483ZM473.167 91.7495H391.955V92.7495H473.167V91.7495ZM611.878 214.155H595.573V215.155H611.878V214.155ZM688.886 108.555L688.886 137.147L689.886 137.147L689.886 108.555L688.886 108.555ZM842.602 30.5468H766.894V31.5468H842.602V30.5468ZM959.816 26.9465H846.202V27.9465H959.816V26.9465ZM1118.43 106.15H1039.02V107.15H1118.43V106.15ZM1246.45 34.1469H1190.44V35.1469H1246.45V34.1469ZM1437.46 160.152H1372.45V161.152H1437.46V160.152ZM1608.68 214.155H1491.47V215.155H1608.68V214.155ZM1743.9 192.554H1630.28V193.554H1743.9V192.554ZM1889.91 131.351H1805.1V132.351H1889.91V131.351ZM2070.13 52.1477H1969.11V53.1477H2070.13V52.1477ZM2070.13 53.1477C2078.36 53.1477 2085.03 46.4765 2085.03 38.2471L2084.03 38.2471C2084.03 45.9242 2077.81 52.1477 2070.13 52.1477V53.1477ZM1930.01 92.2495C1930.01 70.6541 1947.52 53.1477 1969.11 53.1477V52.1477C1946.97 52.1477 1929.01 70.1019 1929.01 92.2495H1930.01ZM1889.91 132.351C1912.06 132.351 1930.01 114.397 1930.01 92.2495H1929.01C1929.01 113.845 1911.51 131.351 1889.91 131.351V132.351ZM1775 162.453C1775 145.828 1788.47 132.351 1805.1 132.351V131.351C1787.92 131.351 1774 145.276 1774 162.453H1775ZM1743.9 193.554C1761.07 193.554 1775 179.629 1775 162.453H1774C1774 179.077 1760.52 192.554 1743.9 192.554V193.554ZM1619.98 203.854C1619.98 198.166 1624.59 193.554 1630.28 193.554V192.554C1624.04 192.554 1618.98 197.613 1618.98 203.854H1619.98ZM1608.68 215.155C1614.92 215.155 1619.98 210.096 1619.98 203.854H1618.98C1618.98 209.543 1614.37 214.155 1608.68 214.155V215.155ZM1463.97 187.654C1463.97 202.842 1476.28 215.155 1491.47 215.155V214.155C1476.83 214.155 1464.97 202.29 1464.97 187.654H1463.97ZM1437.46 161.152C1452.1 161.152 1463.97 173.017 1463.97 187.654H1464.97C1464.97 172.465 1452.65 160.152 1437.46 160.152V161.152ZM1308.95 97.6497C1308.95 132.721 1337.38 161.152 1372.45 161.152V160.152C1337.93 160.152 1309.95 132.169 1309.95 97.6497H1308.95ZM1246.45 35.1469C1280.97 35.1469 1308.95 63.1303 1308.95 97.6497H1309.95C1309.95 62.578 1281.52 34.1469 1246.45 34.1469V35.1469ZM1154.93 70.6485C1154.93 51.0415 1170.83 35.1469 1190.44 35.1469V34.1469C1170.28 34.1469 1153.93 50.4892 1153.93 70.6485H1154.93ZM1118.43 107.15C1138.59 107.15 1154.93 90.8078 1154.93 70.6485H1153.93C1153.93 90.2555 1138.04 106.15 1118.43 106.15V107.15ZM998.918 67.0483C998.918 89.196 1016.87 107.15 1039.02 107.15V106.15C1017.42 106.15 999.918 88.6437 999.918 67.0483H998.918ZM224.838 70.6485C224.838 68.9363 226.226 67.5483 227.938 67.5483V66.5483C225.674 66.5483 223.838 68.3841 223.838 70.6485L224.838 70.6485ZM220.738 74.7487C223.003 74.7487 224.838 72.9129 224.838 70.6485L223.838 70.6485C223.838 72.3607 222.45 73.7487 220.738 73.7487V74.7487ZM68.8223 67.0483C68.8223 71.3011 72.2699 74.7487 76.5226 74.7487V73.7487C72.8222 73.7487 69.8223 70.7488 69.8223 67.0483H68.8223ZM62.122 60.348C65.8225 60.348 68.8223 63.3479 68.8223 67.0483H69.8223C69.8223 62.7956 66.3748 59.348 62.122 59.348V60.348ZM-85.1936 133.651C-85.1936 93.167 -52.3746 60.348 -11.8904 60.348V59.348C-52.9269 59.348 -86.1936 92.6148 -86.1936 133.651H-85.1936ZM-159.497 207.955C-118.46 207.955 -85.1936 174.688 -85.1936 133.651H-86.1936C-86.1936 174.136 -119.013 206.955 -159.497 206.955V207.955ZM-241.21 146.252C-241.21 180.329 -213.584 207.955 -179.507 207.955V206.955C-213.032 206.955 -240.21 179.777 -240.21 146.252H-241.21ZM-301.912 85.5491C-268.387 85.5491 -241.21 112.727 -241.21 146.252H-240.21C-240.21 112.174 -267.835 84.5491 -301.912 84.5491V85.5491ZM-395.225 115.65C-395.225 99.0259 -381.749 85.5491 -365.124 85.5491V84.5491C-382.301 84.5491 -396.225 98.4736 -396.225 115.65L-395.225 115.65ZM-426.327 146.752C-409.15 146.752 -395.225 132.827 -395.225 115.65L-396.225 115.65C-396.225 132.275 -409.702 145.752 -426.327 145.752V146.752ZM-551.241 112.05C-551.241 131.215 -535.705 146.752 -516.54 146.752V145.752C-535.153 145.752 -550.241 130.663 -550.241 112.05L-551.241 112.05ZM-584.943 78.3488C-566.33 78.3488 -551.241 93.4375 -551.241 112.05L-550.241 112.05C-550.241 92.8852 -565.778 77.3488 -584.943 77.3488V78.3488ZM-705.257 155.357C-705.257 112.826 -670.78 78.3488 -628.249 78.3488V77.3488C-671.332 77.3488 -706.257 112.274 -706.257 155.357H-705.257ZM-757.806 277.013C-728.784 277.013 -705.257 253.486 -705.257 224.464H-706.257C-706.257 252.934 -729.337 276.013 -757.806 276.013V277.013ZM-809.355 281.586C-809.355 279.06 -807.308 277.013 -804.783 277.013V276.013C-807.86 276.013 -810.355 278.508 -810.355 281.586H-809.355ZM-804.783 286.158C-807.308 286.158 -809.355 284.111 -809.355 281.586H-810.355C-810.355 284.663 -807.86 287.158 -804.783 287.158V286.158ZM959.816 27.9465C981.411 27.9465 998.918 45.453 998.918 67.0483H999.918C999.918 44.9007 981.963 26.9465 959.816 26.9465V27.9465ZM2653.17 281.586C2653.17 284.111 2651.13 286.158 2648.6 286.158V287.158C2651.68 287.158 2654.17 284.663 2654.17 281.586H2653.17ZM844.902 29.2466C844.902 28.5286 845.484 27.9465 846.202 27.9465V26.9465C844.932 26.9465 843.902 27.9763 843.902 29.2466H844.902ZM2648.6 277.013C2651.13 277.013 2653.17 279.06 2653.17 281.586H2654.17C2654.17 278.508 2651.68 276.013 2648.6 276.013V277.013ZM842.602 31.5468C843.872 31.5468 844.902 30.517 844.902 29.2466H843.902C843.902 29.9647 843.32 30.5468 842.602 30.5468V31.5468ZM2549.08 224.464C2549.08 253.486 2572.6 277.013 2601.63 277.013V276.013C2573.16 276.013 2550.08 252.934 2550.08 224.464L2549.08 224.464ZM689.886 108.555C689.886 66.0244 724.363 31.5468 766.894 31.5468V30.5468C723.811 30.5468 688.886 65.4722 688.886 108.555L689.886 108.555ZM2472.07 96.3496C2514.6 96.3496 2549.08 130.827 2549.08 173.358L2550.08 173.358C2550.08 130.275 2515.15 95.3496 2472.07 95.3496V96.3496ZM611.878 215.155C654.961 215.155 689.886 180.23 689.886 137.147L688.886 137.147C688.886 179.677 654.408 214.155 611.878 214.155V215.155ZM2394.06 74.2487C2394.06 86.4547 2403.96 96.3496 2416.16 96.3496V95.3496C2404.51 95.3496 2395.06 85.9024 2395.06 74.2487H2394.06ZM533.87 153.452C533.87 187.53 561.495 215.155 595.573 215.155V214.155C562.047 214.155 534.87 186.977 534.87 153.452L533.87 153.452ZM2372.96 53.1477C2384.61 53.1477 2394.06 62.5949 2394.06 74.2487H2395.06C2395.06 62.0426 2385.17 52.1477 2372.96 52.1477V53.1477ZM473.167 92.7495C506.693 92.7495 533.87 119.927 533.87 153.452L534.87 153.452C534.87 119.375 507.245 91.7495 473.167 91.7495V92.7495ZM2239.04 38.2471C2239.04 46.4765 2245.72 53.1477 2253.95 53.1477V52.1477C2246.27 52.1477 2240.04 45.9242 2240.04 38.2471H2239.04ZM378.854 79.6489C378.854 86.8842 384.719 92.7495 391.955 92.7495V91.7495C385.272 91.7495 379.854 86.3319 379.854 79.6489L378.854 79.6489ZM2098.93 23.3464C2090.7 23.3464 2084.03 30.0177 2084.03 38.2471L2085.03 38.2471C2085.03 30.5699 2091.25 24.3464 2098.93 24.3464V23.3464ZM366.754 67.5483C373.437 67.5483 378.854 72.966 378.854 79.6489L379.854 79.6489C379.854 72.4137 373.989 66.5483 366.754 66.5483V67.5483ZM2225.14 24.3464C2232.82 24.3464 2239.04 30.57 2239.04 38.2471H2240.04C2240.04 30.0177 2233.37 23.3464 2225.14 23.3464V24.3464Z" fill="url(#paint1_linear_42_787)"/>
<path d="M-579.961 473.87L-579.961 474.37L-579.961 474.37L-579.961 473.87ZM-454.164 473.87L-454.164 473.37L-454.164 473.37L-454.164 473.87ZM-328.368 473.87L-328.368 473.37H-328.368V473.87ZM-202.571 473.87L-202.571 474.37L-202.571 474.37L-202.571 473.87ZM-76.7744 473.87L-76.7744 473.37L-76.7744 473.37L-76.7744 473.87ZM49.0222 473.87L49.0222 473.37L49.0222 473.37L49.0222 473.87ZM174.819 473.87L174.819 473.37L174.819 473.87ZM300.615 473.87L300.615 473.37L300.615 473.37L300.615 473.87ZM426.412 473.87L426.412 474.37L426.412 474.37L426.412 473.87ZM552.209 473.87L552.209 473.37L552.209 473.37L552.209 473.87ZM929.599 473.87L929.599 474.37L929.599 474.37L929.599 473.87ZM1055.4 473.87L1055.4 473.37L1055.4 473.37L1055.4 473.87ZM1181.19 473.87L1181.19 474.37L1181.19 474.37L1181.19 473.87ZM1306.99 473.87L1306.99 473.37L1306.99 473.37L1306.99 473.87ZM1432.79 473.87L1432.79 474.37H1432.79V473.87ZM1558.58 473.87L1558.58 474.37L1558.58 474.37L1558.58 473.87ZM1810.18 473.87L1810.18 473.37L1810.18 473.37L1810.18 473.87ZM1935.97 473.87L1935.97 474.37L1935.97 474.37L1935.97 473.87ZM174.819 363.961L174.319 363.961L174.819 363.961ZM2035 473.87L2035 474.37L2035 473.87ZM706.807 215.158H757V214.158H706.807V215.158ZM559.409 272.761H649.204V271.761H559.409V272.761ZM435.413 287.161H545.008V286.161H435.413V287.161ZM302.416 305.162H417.412V304.162H302.416V305.162ZM237.718 301.562H298.815V300.562H237.718V301.562ZM175.319 389.37L175.319 363.961L174.319 363.961L174.319 389.37L175.319 389.37ZM104.825 452.769H111.92V451.769H104.825V452.769ZM-28.1723 341.164H-6.7803V340.164H-28.1723V341.164ZM-143.169 438.368H-125.377V437.368H-143.169V438.368ZM-285.166 319.563H-261.974V318.563H-285.166V319.563ZM-405.562 233.159H-371.57V232.159H-405.562V233.159ZM-533.159 330.363H-502.767V329.363H-533.159V330.363ZM-685.629 423.967H-626.763V422.967H-685.629V423.967ZM-804.783 464.225H-725.887V463.225H-804.783V464.225ZM-705.758 473.37H-804.783V474.37H-705.758V473.37ZM-579.961 473.37H-705.758V474.37H-579.961V473.37ZM-454.164 473.37L-579.961 473.37L-579.961 474.37L-454.164 474.37L-454.164 473.37ZM-328.368 473.37H-454.164V474.37H-328.368V473.37ZM-202.571 473.37L-328.368 473.37L-328.368 474.37L-202.571 474.37L-202.571 473.37ZM-76.7744 473.37L-202.571 473.37L-202.571 474.37L-76.7744 474.37L-76.7744 473.37ZM49.0222 473.37L-76.7744 473.37L-76.7744 474.37L49.0222 474.37L49.0222 473.37ZM174.819 473.37L49.0222 473.37L49.0222 474.37L174.819 474.37L174.819 473.37ZM300.615 473.37L174.819 473.37L174.819 474.37L300.615 474.37L300.615 473.37ZM426.412 473.37L300.615 473.37L300.615 474.37L426.412 474.37L426.412 473.37ZM552.209 473.37L426.412 473.37L426.412 474.37L552.209 474.37L552.209 473.37ZM678.005 473.37H552.209V474.37H678.005V473.37ZM803.802 473.37H678.005V474.37H803.802V473.37ZM929.599 473.37H803.802V474.37H929.599V473.37ZM1055.4 473.37L929.599 473.37L929.599 474.37L1055.4 474.37L1055.4 473.37ZM1181.19 473.37L1055.4 473.37L1055.4 474.37L1181.19 474.37L1181.19 473.37ZM1306.99 473.37L1181.19 473.37L1181.19 474.37L1306.99 474.37L1306.99 473.37ZM1432.79 473.37L1306.99 473.37L1306.99 474.37L1432.79 474.37L1432.79 473.37ZM1558.58 473.37H1432.79V474.37H1558.58V473.37ZM1684.38 473.37L1558.58 473.37L1558.58 474.37L1684.38 474.37L1684.38 473.37ZM1810.18 473.37L1684.38 473.37L1684.38 474.37L1810.18 474.37L1810.18 473.37ZM1935.97 473.37L1810.18 473.37L1810.18 474.37L1935.97 474.37L1935.97 473.37ZM2035 473.37L1935.97 473.37L1935.97 474.37L2035 474.37L2035 473.37ZM1988.02 464.225H2035V463.225H1988.02V464.225ZM1935.47 284.757V411.676H1936.47V284.757H1935.47ZM1871.38 222.359H1873.07V221.359H1871.38V222.359ZM1729.38 344.764H1748.97V343.764H1729.38V344.764ZM1621.48 434.768H1639.38V433.768H1621.48V434.768ZM1558.08 367.561V371.37H1559.08V367.561H1558.08ZM1463.39 305.162H1495.68V304.162H1463.39V305.162ZM1319.59 243.959H1402.18V242.959H1319.59V243.959ZM1208.19 269.161H1294.39V268.161H1208.19V269.161ZM1060.8 323.163H1154.19V322.163H1060.8V323.163ZM931.399 312.362H1049.99V311.362H931.399V312.362ZM850.604 308.762H927.799V307.762H850.604V308.762ZM850.604 307.762C825.032 307.762 804.302 287.032 804.302 261.46H803.302C803.302 287.584 824.48 308.762 850.604 308.762V307.762ZM-810.355 468.797C-810.355 471.875 -807.861 474.37 -804.783 474.37V473.37C-807.308 473.37 -809.355 471.323 -809.355 468.797H-810.355ZM-804.783 463.225C-807.861 463.225 -810.355 465.72 -810.355 468.797H-809.355C-809.355 466.272 -807.308 464.225 -804.783 464.225V463.225ZM-706.258 443.596C-706.258 454.437 -715.046 463.225 -725.887 463.225V464.225C-714.494 464.225 -705.258 454.989 -705.258 443.596H-706.258ZM-685.629 422.967C-697.022 422.967 -706.258 432.203 -706.258 443.596H-705.258C-705.258 432.756 -696.47 423.967 -685.629 423.967V422.967ZM-580.461 376.665C-580.461 402.237 -601.191 422.967 -626.763 422.967V423.967C-600.639 423.967 -579.461 402.79 -579.461 376.665H-580.461ZM930.099 310.062C930.099 308.792 929.069 307.762 927.799 307.762V308.762C928.517 308.762 929.099 309.344 929.099 310.062H930.099ZM-533.159 329.363C-559.283 329.363 -580.461 350.541 -580.461 376.665H-579.461C-579.461 351.093 -558.731 330.363 -533.159 330.363V329.363ZM931.399 311.362C930.681 311.362 930.099 310.78 930.099 310.062H929.099C929.099 311.333 930.128 312.362 931.399 312.362V311.362ZM-454.664 281.261C-454.664 307.827 -476.201 329.363 -502.767 329.363V330.363C-475.648 330.363 -453.664 308.379 -453.664 281.261H-454.664ZM1055.9 317.263C1055.9 314.004 1053.25 311.362 1049.99 311.362V312.362C1052.7 312.362 1054.9 314.556 1054.9 317.263H1055.9ZM-405.562 232.159C-432.681 232.159 -454.664 254.143 -454.664 281.261H-453.664C-453.664 254.695 -432.128 233.159 -405.562 233.159V232.159ZM1060.8 322.163C1058.09 322.163 1055.9 319.969 1055.9 317.263H1054.9C1054.9 320.521 1057.54 323.163 1060.8 323.163V322.163ZM-327.868 275.861C-327.868 251.725 -347.434 232.159 -371.57 232.159V233.159C-347.986 233.159 -328.868 252.277 -328.868 275.861L-327.868 275.861ZM1180.69 295.662C1180.69 310.298 1168.83 322.163 1154.19 322.163V323.163C1169.38 323.163 1181.69 310.85 1181.69 295.662H1180.69ZM-285.166 318.563C-308.749 318.563 -327.868 299.445 -327.868 275.861L-328.868 275.861C-328.868 299.997 -309.302 319.563 -285.166 319.563V318.563ZM1208.19 268.161C1193 268.161 1180.69 280.473 1180.69 295.662H1181.69C1181.69 281.026 1193.56 269.161 1208.19 269.161V268.161ZM-202.071 378.465C-202.071 345.382 -228.89 318.563 -261.974 318.563V319.563C-229.443 319.563 -203.071 345.934 -203.071 378.465H-202.071ZM1306.49 256.06C1306.49 262.743 1301.07 268.161 1294.39 268.161V269.161C1301.62 269.161 1307.49 263.295 1307.49 256.06H1306.49ZM-143.169 437.368C-175.7 437.368 -202.071 410.996 -202.071 378.465H-203.071C-203.071 411.549 -176.252 438.368 -143.169 438.368V437.368ZM1319.59 242.959C1312.35 242.959 1306.49 248.825 1306.49 256.06H1307.49C1307.49 249.377 1312.91 243.959 1319.59 243.959V242.959ZM-77.2744 389.266C-77.2744 415.832 -98.8105 437.368 -125.377 437.368V438.368C-98.2582 438.368 -76.2744 416.384 -76.2744 389.266L-77.2744 389.266ZM1433.29 274.061C1433.29 256.884 1419.36 242.959 1402.18 242.959V243.959C1418.81 243.959 1432.29 257.436 1432.29 274.061H1433.29ZM-28.1723 340.164C-55.2907 340.164 -77.2745 362.147 -77.2744 389.266L-76.2744 389.266C-76.2745 362.7 -54.7384 341.164 -28.1723 341.164V340.164ZM1463.39 304.162C1446.76 304.162 1433.29 290.685 1433.29 274.061H1432.29C1432.29 291.238 1446.21 305.162 1463.39 305.162V304.162ZM49.5222 396.466C49.5222 365.371 24.3147 340.164 -6.7803 340.164V341.164C23.7624 341.164 48.5222 365.923 48.5222 396.466L49.5222 396.466ZM1559.08 367.561C1559.08 332.547 1530.7 304.162 1495.68 304.162V305.162C1530.15 305.162 1558.08 333.099 1558.08 367.561H1559.08ZM104.825 451.769C74.2819 451.769 49.5222 427.009 49.5222 396.466L48.5222 396.466C48.5222 427.561 73.7297 452.769 104.825 452.769V451.769ZM1621.48 433.768C1587.02 433.768 1559.08 405.831 1559.08 371.37H1558.08C1558.08 406.384 1586.47 434.768 1621.48 434.768V433.768ZM174.319 389.37C174.319 423.832 146.382 451.769 111.92 451.769V452.769C146.934 452.769 175.319 424.384 175.319 389.37L174.319 389.37ZM1683.88 389.266C1683.88 413.844 1663.95 433.768 1639.38 433.768V434.768C1664.51 434.768 1684.88 414.396 1684.88 389.266H1683.88ZM237.718 300.562C202.704 300.562 174.319 328.947 174.319 363.961L175.319 363.961C175.319 329.499 203.256 301.562 237.718 301.562V300.562ZM1729.38 343.764C1704.25 343.764 1683.88 364.136 1683.88 389.266H1684.88C1684.88 364.688 1704.8 344.764 1729.38 344.764V343.764ZM301.115 302.862C301.115 301.592 300.086 300.562 298.815 300.562V301.562C299.533 301.562 300.115 302.144 300.115 302.862L301.115 302.862ZM1809.68 283.061C1809.68 316.586 1782.5 343.764 1748.97 343.764V344.764C1783.05 344.764 1810.68 317.139 1810.68 283.061H1809.68ZM302.416 304.162C301.698 304.162 301.115 303.58 301.115 302.862L300.115 302.862C300.115 304.132 301.145 305.162 302.416 305.162V304.162ZM1871.38 221.359C1837.3 221.359 1809.68 248.984 1809.68 283.061H1810.68C1810.68 249.536 1837.85 222.359 1871.38 222.359V221.359ZM425.912 295.662C425.912 300.356 422.106 304.162 417.412 304.162V305.162C422.659 305.162 426.912 300.909 426.912 295.662H425.912ZM1936.47 284.757C1936.47 249.743 1908.09 221.359 1873.07 221.359V222.359C1907.54 222.359 1935.47 250.295 1935.47 284.757H1936.47ZM435.413 286.161C430.166 286.161 425.912 290.415 425.912 295.662H426.912C426.912 290.967 430.718 287.161 435.413 287.161V286.161ZM1988.02 463.225C1959.55 463.225 1936.47 440.146 1936.47 411.676H1935.47C1935.47 440.698 1959 464.225 1988.02 464.225V463.225ZM551.709 279.461C551.709 283.162 548.709 286.161 545.008 286.161V287.161C549.261 287.161 552.709 283.714 552.709 279.461H551.709ZM2040.57 468.797C2040.57 465.72 2038.07 463.225 2035 463.225V464.225C2037.52 464.225 2039.57 466.272 2039.57 468.797H2040.57ZM559.409 271.761C555.156 271.761 551.709 275.208 551.709 279.461H552.709C552.709 275.761 555.709 272.761 559.409 272.761V271.761ZM2035 474.37C2038.07 474.37 2040.57 471.875 2040.57 468.797H2039.57C2039.57 471.323 2037.52 473.37 2035 473.37L2035 474.37ZM677.505 243.459C677.505 259.09 664.834 271.761 649.204 271.761V272.761C665.387 272.761 678.505 259.642 678.505 243.459H677.505ZM757 215.158C782.572 215.158 803.302 235.888 803.302 261.46H804.302C804.302 235.336 783.124 214.158 757 214.158V215.158ZM706.807 214.158C690.624 214.158 677.505 227.277 677.505 243.459H678.505C678.505 227.829 691.176 215.158 706.807 215.158V214.158Z" fill="url(#paint2_linear_42_787)"/>
<path d="M1909.8 635.873L1909.8 635.373H1909.8V635.873ZM2047.46 635.873L2047.46 636.373H2047.46L2047.46 635.873ZM2185.12 635.873L2185.12 635.373H2185.12L2185.12 635.873ZM-568.097 635.873L-568.097 635.373H-568.097V635.873ZM-430.436 635.873L-430.436 636.373L-430.436 636.373L-430.436 635.873ZM-292.776 635.873L-292.776 635.373L-292.776 635.373L-292.776 635.873ZM-155.115 635.873L-155.115 636.373L-155.115 636.373L-155.115 635.873ZM-17.454 635.873L-17.454 636.373L-17.454 636.373L-17.454 635.873ZM120.207 635.873L120.207 635.373L120.207 635.373L120.207 635.873ZM257.868 635.873L257.868 636.373H257.868V635.873ZM395.528 635.873L395.528 636.373H395.528L395.528 635.873ZM533.189 635.873L533.189 635.373L533.189 635.373L533.189 635.873ZM670.85 635.873L670.85 635.373H670.85L670.85 635.873ZM808.51 635.873L808.51 636.373H808.51V635.873ZM946.171 635.873L946.171 636.373H946.171L946.171 635.873ZM257.868 456.292L258.368 456.292L257.868 456.292ZM1634.47 531.041L1634.97 531.041L1634.47 531.041ZM1634.47 434.692L1633.97 434.692L1634.47 434.692ZM1703.3 366.361H1750.53V365.361H1703.3V366.361ZM1634.97 531.041L1634.97 434.692L1633.97 434.692L1633.97 531.041L1634.97 531.041ZM1549.02 600.372H1565.64V599.372H1549.02V600.372ZM1416.76 495.967H1444.61V494.967H1416.76V495.967ZM1290.32 380.762H1301.55V379.762H1290.32V380.762ZM1221.99 531.041V449.092H1220.99V531.041H1221.99ZM1101.83 600.372H1152.66V599.372H1101.83V600.372ZM1221.49 635.373H1101.83V636.373H1221.49V635.373ZM1359.15 635.373H1221.49V636.373H1359.15V635.373ZM1496.81 635.373H1359.15V636.373H1496.81V635.373ZM1634.47 635.373H1496.81V636.373H1634.47V635.373ZM1772.14 635.373H1634.47V636.373H1772.14V635.373ZM1909.8 635.373H1772.14V636.373H1909.8V635.373ZM2047.46 635.373L1909.8 635.373L1909.8 636.373L2047.46 636.373L2047.46 635.373ZM2185.12 635.373L2047.46 635.373L2047.46 636.373L2185.12 636.373L2185.12 635.373ZM2284.14 635.373H2185.12V636.373H2284.14V635.373ZM2235.85 626.229H2284.14V625.229H2235.85V626.229ZM2096.06 524.768H2134.39V523.768H2096.06V524.768ZM1978.63 621.973H1998.85V620.973H1978.63V621.973ZM1909.3 477.894V552.642H1910.3V477.894H1909.3ZM1793.74 409.563H1840.97V408.563H1793.74V409.563ZM326.698 387.962H346.926V386.962H326.698V387.962ZM258.367 509.44L258.368 456.292L257.368 456.292L257.367 509.44L258.367 509.44ZM181.409 578.771H189.037V577.771H181.409V578.771ZM-13.8538 456.365H59.0039V455.365H-13.8538V456.365ZM-86.2847 463.566H-21.0542V462.566H-86.2847V463.566ZM-154.615 534.642V531.896H-155.615V534.642H-154.615ZM-293.276 506.695V534.642H-292.276V506.695H-293.276ZM-425.036 438.365H-361.606V437.365H-425.036V438.365ZM-541.096 449.165H-435.837V448.165H-541.096V449.165ZM-636.927 395.163H-595.098V394.163H-636.927V395.163ZM-705.258 573.68V463.493H-706.258V573.68H-705.258ZM-804.783 626.229H-757.807V625.229H-804.783V626.229ZM-705.758 635.373H-804.783V636.373H-705.758V635.373ZM-568.097 635.373H-705.758V636.373H-568.097V635.373ZM-430.436 635.373L-568.097 635.373L-568.097 636.373L-430.436 636.373L-430.436 635.373ZM-292.776 635.373L-430.436 635.373L-430.436 636.373L-292.776 636.373L-292.776 635.373ZM-155.115 635.373L-292.776 635.373L-292.776 636.373L-155.115 636.373L-155.115 635.373ZM-17.454 635.373L-155.115 635.373L-155.115 636.373L-17.454 636.373L-17.454 635.373ZM120.207 635.373L-17.454 635.373L-17.454 636.373L120.207 636.373L120.207 635.373ZM257.868 635.373L120.207 635.373L120.207 636.373L257.868 636.373L257.868 635.373ZM395.528 635.373H257.868V636.373H395.528V635.373ZM533.189 635.373L395.528 635.373L395.528 636.373L533.189 636.373L533.189 635.373ZM670.85 635.373L533.189 635.373L533.189 636.373L670.85 636.373L670.85 635.373ZM808.51 635.373L670.85 635.373L670.85 636.373L808.51 636.373L808.51 635.373ZM946.171 635.373H808.51V636.373H946.171V635.373ZM972.227 635.373L946.171 635.373L946.171 636.373L972.227 636.373L972.227 635.373ZM1083.33 481.494V524.268H1084.33V481.494H1083.33ZM946.671 552.642V481.494H945.671V552.642H946.671ZM706.851 485.167H740.107V484.167H706.851V485.167ZM569.19 413.163H634.848V412.163H569.19V413.163ZM444.13 485.167H497.187V484.167H444.13V485.167ZM444.13 484.167C417.564 484.167 396.028 462.63 396.028 436.064L395.028 436.064C395.028 463.183 417.012 485.167 444.13 485.167V484.167ZM532.689 448.665C532.689 468.272 516.794 484.167 497.187 484.167V485.167C517.346 485.167 533.689 468.824 533.689 448.665H532.689ZM569.19 412.163C549.031 412.163 532.689 428.506 532.689 448.665H533.689C533.689 429.058 549.583 413.163 569.19 413.163V412.163ZM809.01 553.07C809.01 515.015 778.161 484.167 740.107 484.167V485.167C777.609 485.167 808.01 515.568 808.01 553.07H809.01ZM877.126 620.973C839.622 620.973 809.01 590.569 809.01 553.07H808.01C808.01 591.126 839.074 621.973 877.126 621.973V620.973ZM945.671 552.642C945.671 590.378 914.866 620.973 877.126 620.973V621.973C915.414 621.973 946.671 590.934 946.671 552.642H945.671ZM1015 412.163C976.711 412.163 945.671 443.204 945.671 481.494H946.671C946.671 443.756 977.264 413.163 1015 413.163V412.163ZM1084.33 481.494C1084.33 443.204 1053.29 412.163 1015 412.163V413.163C1052.74 413.163 1083.33 443.756 1083.33 481.494H1084.33ZM972.227 636.373C1034.14 636.373 1084.33 586.182 1084.33 524.268H1083.33C1083.33 585.63 1033.59 635.373 972.227 635.373L972.227 636.373ZM-810.355 630.801C-810.355 633.878 -807.861 636.373 -804.783 636.373V635.373C-807.308 635.373 -809.355 633.326 -809.355 630.801H-810.355ZM-804.783 625.229C-807.861 625.229 -810.355 627.723 -810.355 630.801H-809.355C-809.355 628.276 -807.308 626.229 -804.783 626.229V625.229ZM-706.258 573.68C-706.258 602.149 -729.337 625.229 -757.807 625.229V626.229C-728.785 626.229 -705.258 602.702 -705.258 573.68H-706.258ZM-636.927 394.163C-675.218 394.163 -706.258 425.203 -706.258 463.493H-705.258C-705.258 425.755 -674.665 395.163 -636.927 395.163V394.163ZM-567.597 421.664C-567.597 406.475 -579.91 394.163 -595.098 394.163V395.163C-580.462 395.163 -568.597 407.028 -568.597 421.664L-567.597 421.664ZM-541.096 448.165C-555.732 448.165 -567.597 436.3 -567.597 421.664L-568.597 421.664C-568.597 436.852 -556.284 449.165 -541.096 449.165V448.165ZM-430.936 443.265C-430.936 445.971 -433.13 448.165 -435.837 448.165V449.165C-432.578 449.165 -429.936 446.523 -429.936 443.265L-430.936 443.265ZM-425.036 437.365C-428.295 437.365 -430.936 440.006 -430.936 443.265L-429.936 443.265C-429.936 440.558 -427.742 438.365 -425.036 438.365V437.365ZM-292.276 506.695C-292.276 468.405 -323.316 437.365 -361.606 437.365V438.365C-323.868 438.365 -293.276 468.957 -293.276 506.695H-292.276ZM-223.945 602.972C-261.683 602.972 -292.276 572.379 -292.276 534.642H-293.276C-293.276 572.932 -262.235 603.972 -223.945 603.972V602.972ZM-155.615 534.642C-155.615 572.379 -186.207 602.972 -223.945 602.972V603.972C-185.655 603.972 -154.615 572.932 -154.615 534.642H-155.615ZM-86.2847 462.566C-124.575 462.566 -155.615 493.606 -155.615 531.896H-154.615C-154.615 494.158 -124.022 463.566 -86.2847 463.566V462.566ZM-17.954 459.465C-17.954 461.178 -19.342 462.566 -21.0542 462.566V463.566C-18.7897 463.566 -16.954 461.73 -16.954 459.465L-17.954 459.465ZM-13.8538 455.365C-16.1183 455.365 -17.954 457.201 -17.954 459.465L-16.954 459.465C-16.954 457.753 -15.566 456.365 -13.8538 456.365V455.365ZM120.707 517.068C120.707 482.991 93.0814 455.365 59.0039 455.365V456.365C92.5291 456.365 119.707 483.543 119.707 517.068L120.707 517.068ZM181.409 577.771C147.884 577.771 120.707 550.593 120.707 517.068L119.707 517.068C119.707 551.145 147.332 578.771 181.409 578.771V577.771ZM2185.62 574.998C2185.62 546.705 2162.68 523.768 2134.39 523.768V524.768C2162.13 524.768 2184.62 547.257 2184.62 574.998H2185.62ZM2235.85 625.229C2208.11 625.229 2185.62 602.74 2185.62 574.998H2184.62C2184.62 603.292 2207.55 626.229 2235.85 626.229V625.229ZM671.35 448.665C671.35 428.506 655.007 412.163 634.848 412.163V413.163C654.455 413.163 670.35 429.058 670.35 448.665L671.35 448.665ZM2289.72 630.801C2289.72 627.723 2287.22 625.229 2284.14 625.229V626.229C2286.67 626.229 2288.72 628.276 2288.72 630.801H2289.72ZM706.851 484.167C687.244 484.167 671.35 468.272 671.35 448.665L670.35 448.665C670.35 468.824 686.692 485.167 706.851 485.167V484.167ZM2284.14 636.373C2287.22 636.373 2289.72 633.878 2289.72 630.801H2288.72C2288.72 633.326 2286.67 635.373 2284.14 635.373V636.373ZM1083.33 617.872C1083.33 628.09 1091.62 636.373 1101.83 636.373V635.373C1092.17 635.373 1084.33 627.538 1084.33 617.872H1083.33ZM1101.83 599.372C1091.62 599.372 1083.33 607.655 1083.33 617.872H1084.33C1084.33 608.207 1092.17 600.372 1101.83 600.372V599.372ZM1220.99 531.041C1220.99 568.779 1190.4 599.372 1152.66 599.372V600.372C1190.95 600.372 1221.99 569.331 1221.99 531.041H1220.99ZM257.367 509.44C257.367 547.178 226.775 577.771 189.037 577.771V578.771C227.327 578.771 258.367 547.731 258.367 509.44L257.367 509.44ZM1290.32 379.762C1252.03 379.762 1220.99 410.802 1220.99 449.092H1221.99C1221.99 411.354 1252.59 380.762 1290.32 380.762V379.762ZM346.926 387.962C373.492 387.962 395.028 409.498 395.028 436.064L396.028 436.064C396.028 408.946 374.044 386.962 346.926 386.962V387.962ZM1359.65 437.865C1359.65 405.775 1333.64 379.762 1301.55 379.762V380.762C1333.09 380.762 1358.65 406.328 1358.65 437.864L1359.65 437.865ZM326.698 386.962C288.408 386.962 257.368 418.002 257.368 456.292L258.368 456.292C258.368 418.555 288.96 387.962 326.698 387.962V386.962ZM1416.76 494.967C1385.22 494.967 1359.65 469.401 1359.65 437.865L1358.65 437.864C1358.65 469.954 1384.67 495.967 1416.76 495.967V494.967ZM1793.74 408.563C1782.08 408.563 1772.64 399.116 1772.64 387.462H1771.64C1771.64 399.668 1781.53 409.563 1793.74 409.563V408.563ZM1497.31 547.669C1497.31 518.563 1473.72 494.967 1444.61 494.967V495.967C1473.17 495.967 1496.31 519.115 1496.31 547.669H1497.31ZM1910.3 477.894C1910.3 439.603 1879.26 408.563 1840.97 408.563V409.563C1878.7 409.563 1909.3 440.156 1909.3 477.894H1910.3ZM1549.02 599.372C1520.46 599.372 1497.31 576.224 1497.31 547.669H1496.31C1496.31 576.776 1519.91 600.372 1549.02 600.372V599.372ZM1978.63 620.973C1940.89 620.973 1910.3 590.38 1910.3 552.642H1909.3C1909.3 590.932 1940.34 621.973 1978.63 621.973V620.973ZM1633.97 531.041C1633.97 568.779 1603.38 599.372 1565.64 599.372V600.372C1603.93 600.372 1634.97 569.331 1634.97 531.041L1633.97 531.041ZM2046.96 572.87C2046.96 599.437 2025.42 620.973 1998.85 620.973V621.973C2025.97 621.973 2047.96 599.989 2047.96 572.87L2046.96 572.87ZM1750.53 366.361C1762.19 366.361 1771.64 375.809 1771.64 387.462H1772.64C1772.64 375.256 1762.74 365.361 1750.53 365.361V366.361ZM2096.06 523.768C2068.94 523.768 2046.96 545.752 2046.96 572.87L2047.96 572.87C2047.96 546.304 2069.49 524.768 2096.06 524.768V523.768ZM1703.3 365.361C1665.01 365.361 1633.97 396.402 1633.97 434.692L1634.97 434.692C1634.97 396.954 1665.57 366.361 1703.3 366.361V365.361Z" fill="url(#paint3_linear_42_787)"/>
<path d="M-223.818 794.285L-223.818 794.785L-223.818 794.785L-223.818 794.285ZM-103.333 794.285L-103.333 793.785L-103.333 793.785L-103.333 794.285ZM17.1519 794.285L17.1519 794.785H17.1519V794.285ZM258.122 794.285L258.122 794.785H258.122L258.122 794.285ZM378.607 794.285L378.607 793.785H378.607L378.607 794.285ZM499.092 794.285L499.092 793.785H499.092L499.092 794.285ZM740.061 794.285L740.061 793.785H740.061V794.285ZM860.546 794.285L860.546 794.785L860.546 794.785L860.546 794.285ZM981.031 794.285L981.031 793.785H981.031L981.031 794.285ZM-464.788 794.285L-464.788 793.785H-464.788V794.285ZM1703.94 708.841L1703.44 708.841L1703.94 708.841ZM1703.94 692.52L1704.44 692.52L1703.94 692.52ZM-464.788 681.72L-464.288 681.72L-464.788 681.72ZM1058.31 794.285L1058.31 793.785L1058.31 794.285ZM-464.788 723.242L-465.288 723.242L-464.788 723.242ZM-585.273 723.242L-585.773 723.242L-585.273 723.242ZM1462.97 606.116L1462.47 606.116L1462.97 606.116ZM1462.97 701.641L1463.47 701.641L1462.97 701.641ZM1342.99 701.641V588.116H1341.99V701.641H1342.99ZM1462.47 606.116L1462.47 701.641L1463.47 701.641L1463.47 606.116L1462.47 606.116ZM1583.96 673.8V606.116H1582.96V673.8H1583.96ZM1342.49 794.785H1462.97V793.785H1342.49V794.785ZM1222 794.785H1342.49V793.785H1222V794.785ZM1132.12 794.785H1222V793.785H1132.12V794.785ZM1161.76 732.582H1132.12V733.582H1161.76V732.582ZM1221.5 588.116V672.84H1222.5V588.116H1221.5ZM653.778 531.973H679.819V530.973H653.778V531.973ZM500.892 600.376H585.375V599.376H500.892V600.376ZM434.409 603.976H497.292V602.976H434.409V603.976ZM277.923 715.581H322.804V714.581H277.923V715.581ZM195.239 755.183H238.321V754.183H195.239V755.183ZM77.3943 639.978H80.0342V638.978H77.3943V639.978ZM17.6519 723.242V699.72H16.6519V723.242H17.6519ZM-61.9312 783.984H-43.0906V782.984H-61.9312V783.984ZM-184.216 701.181H-144.735V700.181H-184.216V701.181ZM-284.06 621.977H-263.42V620.977H-284.06V621.977ZM-343.803 707.881V681.72H-344.803V707.881H-343.803ZM-223.818 793.785H-257.899V794.785H-223.818V793.785ZM-103.333 793.785L-223.818 793.785L-223.818 794.785L-103.333 794.785L-103.333 793.785ZM17.1519 793.785L-103.333 793.785L-103.333 794.785L17.1519 794.785L17.1519 793.785ZM137.637 793.785H17.1519V794.785H137.637V793.785ZM258.122 793.785H137.637V794.785H258.122V793.785ZM378.607 793.785L258.122 793.785L258.122 794.785L378.607 794.785L378.607 793.785ZM499.092 793.785L378.607 793.785L378.607 794.785L499.092 794.785L499.092 793.785ZM619.576 793.785H499.092V794.785H619.576V793.785ZM740.061 793.785H619.576V794.785H740.061V793.785ZM860.546 793.785L740.061 793.785L740.061 794.785L860.546 794.785L860.546 793.785ZM981.031 793.785L860.546 793.785L860.546 794.785L981.031 794.785L981.031 793.785ZM1058.31 793.785L981.031 793.785L981.031 794.785L1058.31 794.785L1058.31 793.785ZM1008.03 708.381H1058.31V707.381H1008.03V708.381ZM901.948 654.379H954.03V653.379H901.948V654.379ZM800.304 737.182H819.144V736.182H800.304V737.182ZM739.561 591.716V676.44H740.561V591.716H739.561ZM-584.773 723.242L-584.773 620.517L-585.773 620.517L-585.773 723.242L-584.773 723.242ZM-465.288 681.72L-465.288 723.242L-464.288 723.242L-464.288 681.72L-465.288 681.72ZM-343.803 707.881V681.72H-344.803V707.881H-343.803ZM-464.788 794.785L-430.707 794.785L-430.707 793.785L-464.788 793.785L-464.788 794.785ZM-585.273 794.785H-464.788V793.785H-585.273V794.785ZM-705.758 794.785H-585.273V793.785H-705.758V794.785ZM-804.783 794.785H-705.758V793.785H-804.783V794.785ZM-757.807 783.64H-804.783V784.64H-757.807V783.64ZM-706.258 620.517V732.091H-705.258V620.517H-706.258ZM1583.96 713.281V692.52H1582.96V713.281H1583.96ZM1703.94 793.785H1664.46V794.785H1703.94V793.785ZM1811.82 793.785H1703.94V794.785H1811.82V793.785ZM1764.18 769.584H1811.82V768.584H1764.18V769.584ZM1703.44 692.52L1703.44 708.841L1704.44 708.841L1704.44 692.52L1703.44 692.52ZM1829.5 784.64H1923.45V783.64H1829.5V784.64ZM1923.45 793.785H1829.5V794.785H1923.45V793.785ZM1923.45 794.785C1926.53 794.785 1929.02 792.29 1929.02 789.212H1928.02C1928.02 791.738 1925.98 793.785 1923.45 793.785V794.785ZM1823.93 789.212C1823.93 792.29 1826.42 794.785 1829.5 794.785V793.785C1826.97 793.785 1824.93 791.738 1824.93 789.212H1823.93ZM1923.45 784.64C1925.98 784.64 1928.02 786.687 1928.02 789.212H1929.02C1929.02 786.135 1926.53 783.64 1923.45 783.64V784.64ZM1829.5 783.64C1826.42 783.64 1823.93 786.135 1823.93 789.212H1824.93C1824.93 786.687 1826.97 784.64 1829.5 784.64V783.64ZM1764.18 768.584C1731.19 768.584 1704.44 741.836 1704.44 708.841L1703.44 708.841C1703.44 742.388 1730.64 769.584 1764.18 769.584V768.584ZM1824.93 781.684C1824.93 774.449 1819.06 768.584 1811.82 768.584V769.584C1818.51 769.584 1823.93 775.001 1823.93 781.684H1824.93ZM1811.82 794.785C1819.06 794.785 1824.93 788.92 1824.93 781.684H1823.93C1823.93 788.367 1818.51 793.785 1811.82 793.785V794.785ZM1582.96 713.281C1582.96 758.294 1619.45 794.785 1664.46 794.785V793.785C1620 793.785 1583.96 757.742 1583.96 713.281H1582.96ZM1643.7 632.778C1676.69 632.778 1703.44 659.525 1703.44 692.52L1704.44 692.52C1704.44 658.973 1677.25 631.778 1643.7 631.778V632.778ZM-344.803 707.881C-344.803 755.324 -383.263 793.785 -430.707 793.785L-430.707 794.785C-382.711 794.785 -343.803 755.877 -343.803 707.881H-344.803ZM-404.545 621.977C-371.551 621.977 -344.803 648.725 -344.803 681.72H-343.803C-343.803 648.173 -370.998 620.977 -404.545 620.977V621.977ZM-464.288 681.72C-464.288 648.725 -437.54 621.977 -404.545 621.977V620.977C-438.093 620.977 -465.288 648.173 -465.288 681.72L-464.288 681.72ZM981.531 680.88C981.531 665.691 969.219 653.379 954.03 653.379V654.379C968.666 654.379 980.531 666.244 980.531 680.88H981.531ZM1008.03 707.381C993.396 707.381 981.531 695.516 981.531 680.88H980.531C980.531 696.068 992.844 708.381 1008.03 708.381V707.381ZM1102.02 751.083C1102.02 726.947 1082.45 707.381 1058.31 707.381V708.381C1081.9 708.381 1101.02 727.499 1101.02 751.083H1102.02ZM1058.31 794.785C1082.45 794.785 1102.02 775.219 1102.02 751.083H1101.02C1101.02 774.667 1081.9 793.785 1058.31 793.785L1058.31 794.785ZM-344.803 707.881C-344.803 755.877 -305.895 794.785 -257.899 794.785V793.785C-305.342 793.785 -343.803 755.324 -343.803 707.881H-344.803ZM-284.06 620.977C-317.608 620.977 -344.803 648.173 -344.803 681.72H-343.803C-343.803 648.725 -317.055 621.977 -284.06 621.977V620.977ZM-223.318 661.079C-223.318 638.931 -241.272 620.977 -263.42 620.977V621.977C-241.824 621.977 -224.318 639.484 -224.318 661.079L-223.318 661.079ZM-184.216 700.181C-205.812 700.181 -223.318 682.674 -223.318 661.079L-224.318 661.079C-224.318 683.227 -206.364 701.181 -184.216 701.181V700.181ZM-102.833 742.083C-102.833 718.941 -121.593 700.181 -144.735 700.181V701.181C-122.145 701.181 -103.833 719.493 -103.833 742.083L-102.833 742.083ZM-61.9312 782.984C-84.5207 782.984 -102.833 764.672 -102.833 742.083L-103.833 742.083C-103.833 765.224 -85.073 783.984 -61.9312 783.984V782.984ZM195.239 754.183C163.702 754.183 138.137 728.617 138.137 697.081H137.137C137.137 729.17 163.15 755.183 195.239 755.183V754.183ZM257.622 734.882C257.622 745.542 248.98 754.183 238.321 754.183V755.183C249.533 755.183 258.622 746.094 258.622 734.882H257.622ZM277.923 714.581C266.711 714.581 257.622 723.67 257.622 734.882H258.622C258.622 724.223 267.263 715.581 277.923 715.581V714.581ZM378.107 659.279C378.107 689.822 353.347 714.581 322.804 714.581V715.581C353.899 715.581 379.107 690.374 379.107 659.279L378.107 659.279ZM434.409 602.976C403.314 602.976 378.107 628.184 378.107 659.279L379.107 659.279C379.107 628.736 403.866 603.976 434.409 603.976V602.976ZM498.592 601.676C498.592 602.394 498.01 602.976 497.292 602.976V603.976C498.562 603.976 499.592 602.947 499.592 601.676H498.592ZM1643.7 631.778C1610.15 631.778 1582.96 658.973 1582.96 692.52H1583.96C1583.96 659.525 1610.7 632.778 1643.7 632.778V631.778ZM500.892 599.376C499.621 599.376 498.592 600.406 498.592 601.676H499.592C499.592 600.958 500.174 600.376 500.892 600.376V599.376ZM-757.807 784.64C-728.785 784.64 -705.258 761.113 -705.258 732.091H-706.258C-706.258 760.561 -729.337 783.64 -757.807 783.64V784.64ZM619.076 565.675C619.077 584.288 603.988 599.376 585.375 599.376V600.376C604.54 600.376 620.077 584.84 620.076 565.675L619.076 565.675ZM-809.355 789.212C-809.355 786.687 -807.308 784.64 -804.783 784.64V783.64C-807.861 783.64 -810.355 786.135 -810.355 789.212H-809.355ZM679.819 531.973C712.814 531.973 739.561 558.721 739.561 591.716H740.561C740.561 558.168 713.366 530.973 679.819 530.973V531.973ZM1132.12 793.785C1115.49 793.785 1102.02 780.308 1102.02 763.684H1101.02C1101.02 780.86 1114.94 794.785 1132.12 794.785V793.785ZM-525.03 783.984C-491.483 783.984 -464.288 756.789 -464.288 723.242L-465.288 723.242C-465.288 756.237 -492.035 782.984 -525.03 782.984V783.984ZM1582.96 673.8C1582.96 740.066 1529.24 793.785 1462.97 793.785L1462.97 794.785C1529.79 794.785 1583.96 740.618 1583.96 673.8H1582.96ZM-585.773 723.242C-585.773 756.789 -558.577 783.984 -525.03 783.984V782.984C-558.025 782.984 -584.773 756.237 -584.773 723.242L-585.773 723.242ZM1523.21 546.374C1556.21 546.374 1582.96 573.121 1582.96 606.116H1583.96C1583.96 572.569 1556.76 545.374 1523.21 545.374V546.374ZM-645.515 559.774C-679.062 559.774 -706.258 586.97 -706.258 620.517H-705.258C-705.258 587.522 -678.51 560.774 -645.515 560.774V559.774ZM1463.47 606.116C1463.47 573.121 1490.22 546.374 1523.21 546.374V545.374C1489.67 545.374 1462.47 572.569 1462.47 606.116L1463.47 606.116ZM-645.515 560.774C-612.52 560.774 -585.773 587.522 -585.773 620.517L-584.773 620.517C-584.773 586.97 -611.968 559.774 -645.515 559.774V560.774ZM1402.73 762.383C1436.28 762.383 1463.47 735.188 1463.47 701.641L1462.47 701.641C1462.47 734.636 1435.72 761.383 1402.73 761.383V762.383ZM-804.783 793.785C-807.308 793.785 -809.355 791.738 -809.355 789.212H-810.355C-810.355 792.29 -807.861 794.785 -804.783 794.785V793.785ZM653.778 530.973C634.613 530.973 619.076 546.51 619.076 565.675L620.076 565.675C620.076 547.062 635.165 531.973 653.778 531.973V530.973ZM16.6519 723.242C16.6519 756.237 -10.0958 782.984 -43.0906 782.984V783.984C-9.54348 783.984 17.6519 756.789 17.6519 723.242H16.6519ZM800.304 736.182C767.309 736.182 740.561 709.435 740.561 676.44H739.561C739.561 709.987 766.757 737.182 800.304 737.182V736.182ZM1341.99 701.641C1341.99 735.188 1369.18 762.383 1402.73 762.383V761.383C1369.73 761.383 1342.99 734.636 1342.99 701.641H1341.99ZM1161.76 733.582C1195.31 733.582 1222.5 706.387 1222.5 672.84H1221.5C1221.5 705.835 1194.75 732.582 1161.76 732.582V733.582ZM77.3943 638.978C43.8472 638.978 16.6519 666.173 16.6519 699.72H17.6519C17.6519 666.726 44.3995 639.978 77.3943 639.978V638.978ZM860.046 695.281C860.046 717.87 841.734 736.182 819.144 736.182V737.182C842.286 737.182 861.046 718.422 861.046 695.281L860.046 695.281ZM1282.24 527.373C1248.7 527.373 1221.5 554.568 1221.5 588.116H1222.5C1222.5 555.121 1249.25 528.373 1282.24 528.373V527.373ZM1102.02 763.684C1102.02 747.059 1115.49 733.582 1132.12 733.582V732.582C1114.94 732.582 1101.02 746.507 1101.02 763.684H1102.02ZM138.137 697.081C138.137 664.991 112.123 638.978 80.0342 638.978V639.978C111.571 639.978 137.137 665.544 137.137 697.081H138.137ZM901.948 653.379C878.806 653.379 860.046 672.139 860.046 695.281L861.046 695.281C861.046 672.691 879.359 654.379 901.948 654.379V653.379ZM1282.24 528.373C1315.24 528.373 1341.99 555.121 1341.99 588.116H1342.99C1342.99 554.568 1315.79 527.373 1282.24 527.373V528.373Z" fill="url(#paint4_linear_42_787)"/>
<path d="M1921.53 885.608L1921.53 885.108H1921.53L1921.53 885.608ZM1796.43 885.608L1796.43 885.108H1796.43L1796.43 885.608ZM1671.32 885.608L1671.32 886.108H1671.32L1671.32 885.608ZM1546.21 885.608L1546.21 886.108H1546.21V885.608ZM1421.1 885.608L1421.1 885.108L1421.1 885.108L1421.1 885.608ZM1295.99 885.608L1295.99 886.108H1295.99L1295.99 885.608ZM795.552 885.608L795.552 885.108H795.552V885.608ZM545.334 885.608L545.334 886.108H545.334V885.608ZM420.225 885.608L420.225 885.108H420.225V885.608ZM170.007 885.608L170.007 885.108H170.007L170.007 885.608ZM44.8974 885.608L44.8974 886.108H44.8974L44.8974 885.608ZM-205.321 885.608L-205.321 886.108H-205.321V885.608ZM-330.43 885.608L-330.43 886.108L-330.43 885.608ZM-455.539 885.608L-455.539 885.108H-455.539V885.608ZM2020.56 885.608L2020.56 885.108L2020.56 885.608ZM1921.54 823.414L1922.04 823.414L1921.54 823.414ZM1921.54 821.247L1921.04 821.247L1921.54 821.247ZM1662.37 721.785H1555.16V722.785H1662.37V721.785ZM1783 739.683H1680.27V740.683H1783V739.683ZM1867.32 766.531H1809.85V767.531H1867.32V766.531ZM1922.04 823.414L1922.04 821.247L1921.04 821.247L1921.04 823.414L1922.04 823.414ZM1973.58 875.963H2020.56V874.963H1973.58V875.963ZM2020.56 885.108L1921.53 885.108L1921.53 886.108L2020.56 886.108L2020.56 885.108ZM1796.43 886.108L1921.53 886.108L1921.53 885.108L1796.43 885.108L1796.43 886.108ZM1671.32 886.108L1796.43 886.108L1796.43 885.108L1671.32 885.108L1671.32 886.108ZM1546.21 886.108H1671.32V885.108H1546.21V886.108ZM1421.1 886.108L1546.21 886.108L1546.21 885.108L1421.1 885.108L1421.1 886.108ZM1295.99 886.108L1421.1 886.108L1421.1 885.108L1295.99 885.108L1295.99 886.108ZM1170.88 886.108H1295.99V885.108H1170.88V886.108ZM1045.77 886.108H1170.88V885.108H1045.77V886.108ZM959.815 886.108H1045.77V885.108H959.815V886.108ZM1028.99 806.802H959.815V807.802H1028.99V806.802ZM1164.17 840.362H1062.55V841.362H1164.17V840.362ZM1276.97 826.938H1177.59V827.938H1276.97V826.938ZM1396.49 788.904H1315.01V789.904H1396.49V788.904ZM1537.26 739.683H1445.71V740.683H1537.26V739.683ZM645.833 724.022H546.453V725.022H645.833V724.022ZM773.179 773.243H695.054V774.243H773.179V773.243ZM858.107 728.497H817.925V729.497H858.107V728.497ZM921.162 807.302V791.551H920.162V807.302H921.162ZM795.552 886.108L842.356 886.108L842.356 885.108L795.552 885.108L795.552 886.108ZM670.443 886.108H795.552V885.108H670.443V886.108ZM545.334 886.108H670.443V885.108H545.334V886.108ZM420.225 886.108L545.334 886.108L545.334 885.108L420.225 885.108L420.225 886.108ZM295.116 886.108H420.225V885.108H295.116V886.108ZM170.007 886.108H295.116V885.108H170.007V886.108ZM44.8974 886.108L170.007 886.108L170.007 885.108L44.8974 885.108L44.8974 886.108ZM-80.2118 886.108H44.8974V885.108H-80.2118V886.108ZM-205.321 886.108H-80.2118V885.108H-205.321V886.108ZM-330.43 886.108L-205.321 886.108L-205.321 885.108L-330.43 885.108L-330.43 886.108ZM-455.539 886.108L-330.43 886.108L-330.43 885.108L-455.539 885.108L-455.539 886.108ZM-537.021 886.108H-455.539V885.108H-537.021V886.108ZM-474.557 797.853H-537.021V798.853H-474.557V797.853ZM-368.464 759.819H-436.522V760.819H-368.464V759.819ZM-251.186 835.887H-292.396V836.887H-251.186V835.887ZM-84.6864 744.158H-159.456V745.158H-84.6864V744.158ZM42.6601 753.107H-75.7372V754.107H42.6601V753.107ZM162.176 748.632H47.1346V749.632H162.176V748.632ZM257.081 764.293H177.837V765.293H257.081V764.293ZM363.174 840.362H333.15V841.362H363.174V840.362ZM544.215 726.259H477.276V727.259H544.215V726.259ZM-643.203 755.344H-645.948V756.344H-643.203V755.344ZM-580.149 820.726V818.399H-581.149V820.726H-580.149ZM-705.758 886.108H-645.531V885.108H-705.758V886.108ZM-804.783 886.108H-705.758V885.108H-804.783V886.108ZM-757.807 874.963H-804.783V875.963H-757.807V874.963ZM-706.258 815.654V823.414H-705.258V815.654H-706.258ZM-757.807 875.963C-728.785 875.963 -705.258 852.436 -705.258 823.414H-706.258C-706.258 851.884 -729.337 874.963 -757.807 874.963V875.963ZM-809.356 880.536C-809.356 878.01 -807.308 875.963 -804.783 875.963V874.963C-807.861 874.963 -810.356 877.458 -810.356 880.536H-809.356ZM-804.783 885.108C-807.308 885.108 -809.356 883.061 -809.356 880.536H-810.356C-810.356 883.613 -807.861 886.108 -804.783 886.108V885.108ZM-581.149 820.726C-581.149 856.283 -609.973 885.108 -645.531 885.108V886.108C-609.421 886.108 -580.149 856.836 -580.149 820.726H-581.149ZM-645.948 755.344C-679.256 755.344 -706.258 782.346 -706.258 815.654H-705.258C-705.258 782.898 -678.704 756.344 -645.948 756.344V755.344ZM420.725 783.811C420.725 752.578 446.044 727.259 477.276 727.259V726.259C445.491 726.259 419.725 752.026 419.725 783.811H420.725ZM363.174 841.362C394.958 841.362 420.725 815.595 420.725 783.811H419.725C419.725 815.043 394.406 840.362 363.174 840.362V841.362ZM294.616 802.828C294.616 824.109 311.868 841.362 333.15 841.362V840.362C312.42 840.362 295.616 823.557 295.616 802.828L294.616 802.828ZM257.081 765.293C277.811 765.293 294.616 782.098 294.616 802.828L295.616 802.828C295.616 781.546 278.363 764.293 257.081 764.293V765.293ZM169.507 756.963C169.506 761.564 173.236 765.293 177.837 765.293V764.293C173.788 764.293 170.506 761.011 170.507 756.963L169.507 756.963ZM162.176 749.632C166.225 749.632 169.507 752.914 169.507 756.963L170.507 756.963C170.507 752.362 166.777 748.632 162.176 748.632V749.632ZM45.3974 751.37C45.3974 750.41 46.1752 749.632 47.1346 749.632V748.632C45.6229 748.632 44.3973 749.858 44.3974 751.37L45.3974 751.37ZM42.6601 754.107C44.1719 754.107 45.3974 752.881 45.3974 751.37L44.3974 751.37C44.3974 752.329 43.6196 753.107 42.6601 753.107V754.107ZM-537.021 885.108C-560.84 885.108 -580.149 865.799 -580.149 841.98H-581.149C-581.149 866.351 -561.392 886.108 -537.021 886.108V885.108ZM920.162 807.302C920.162 850.273 885.327 885.108 842.356 885.108L842.356 886.108C885.879 886.108 921.162 850.825 921.162 807.302H920.162ZM858.107 729.497C892.379 729.497 920.162 757.279 920.162 791.551H921.162C921.162 756.727 892.931 728.497 858.107 728.497V729.497ZM796.052 751.37C796.052 739.289 805.845 729.497 817.925 729.497V728.497C805.293 728.497 795.052 738.737 795.052 751.37H796.052ZM773.179 774.243C785.812 774.243 796.052 764.002 796.052 751.37H795.052C795.052 763.45 785.26 773.243 773.179 773.243V774.243ZM1171.38 834.15C1171.38 830.719 1174.16 827.938 1177.59 827.938V826.938C1173.61 826.938 1170.38 830.167 1170.38 834.15L1171.38 834.15ZM1164.17 841.362C1168.15 841.362 1171.38 838.133 1171.38 834.15L1170.38 834.15C1170.38 837.581 1167.6 840.362 1164.17 840.362V841.362ZM1045.27 824.082C1045.27 833.625 1053.01 841.362 1062.55 841.362V840.362C1053.56 840.362 1046.27 833.073 1046.27 824.082L1045.27 824.082ZM1028.99 807.802C1037.98 807.802 1045.27 815.091 1045.27 824.082L1046.27 824.082C1046.27 814.539 1038.53 806.802 1028.99 806.802V807.802ZM-80.7118 749.132C-80.7118 751.88 -78.4846 754.107 -75.7372 754.107V753.107C-77.9324 753.107 -79.7118 751.327 -79.7118 749.132L-80.7118 749.132ZM2025.13 880.536C2025.13 883.061 2023.09 885.108 2020.56 885.108L2020.56 886.108C2023.64 886.108 2026.13 883.613 2026.13 880.536H2025.13ZM-643.203 756.344C-608.931 756.344 -581.149 784.127 -581.149 818.399H-580.149C-580.149 783.575 -608.379 755.344 -643.203 755.344V756.344ZM921.162 846.455C921.162 825.108 938.468 807.802 959.815 807.802V806.802C937.915 806.802 920.162 824.555 920.162 846.455H921.162ZM669.943 749.132C669.943 763 681.186 774.243 695.054 774.243V773.243C681.738 773.243 670.943 762.448 670.943 749.132L669.943 749.132ZM-84.6864 745.158C-82.4913 745.158 -80.7118 746.937 -80.7118 749.132L-79.7118 749.132C-79.7118 746.385 -81.939 744.158 -84.6864 744.158V745.158ZM2020.56 875.963C2023.09 875.963 2025.13 878.01 2025.13 880.536H2026.13C2026.13 877.458 2023.64 874.963 2020.56 874.963V875.963ZM544.215 727.259C545.109 727.259 545.834 726.535 545.834 725.641H544.834C544.834 725.982 544.557 726.259 544.215 726.259V727.259ZM959.815 885.108C938.468 885.108 921.162 867.802 921.162 846.455H920.162C920.162 868.355 937.915 886.108 959.815 886.108V885.108ZM546.453 724.022C545.559 724.022 544.834 724.747 544.834 725.641H545.834C545.834 725.299 546.111 725.022 546.453 725.022V724.022ZM-204.821 790.522C-204.821 765.468 -184.511 745.158 -159.456 745.158V744.158C-185.063 744.158 -205.821 764.916 -205.821 790.522H-204.821ZM1921.04 823.414C1921.04 852.436 1944.56 875.963 1973.58 875.963V874.963C1945.11 874.963 1922.04 851.884 1922.04 823.414L1921.04 823.414ZM645.833 725.022C659.149 725.022 669.943 735.817 669.943 749.132L670.943 749.132C670.943 735.264 659.701 724.022 645.833 724.022V725.022ZM-251.186 836.887C-225.579 836.887 -204.821 816.129 -204.821 790.522H-205.821C-205.821 815.577 -226.132 835.887 -251.186 835.887V836.887ZM1867.32 767.531C1896.99 767.531 1921.04 791.58 1921.04 821.247L1922.04 821.247C1922.04 791.028 1897.54 766.531 1867.32 766.531V767.531ZM1537.26 740.683C1542.48 740.683 1546.71 736.452 1546.71 731.234L1545.71 731.234C1545.71 735.9 1541.92 739.683 1537.26 739.683V740.683ZM-330.93 798.353C-330.93 819.635 -313.678 836.887 -292.396 836.887V835.887C-313.126 835.887 -329.93 819.083 -329.93 798.353L-330.93 798.353ZM1795.93 753.607C1795.93 761.297 1802.16 767.531 1809.85 767.531V766.531C1802.71 766.531 1796.93 760.745 1796.93 753.607L1795.93 753.607ZM1421.6 764.793C1421.6 751.478 1432.39 740.683 1445.71 740.683V739.683C1431.84 739.683 1420.6 750.925 1420.6 764.793L1421.6 764.793ZM-368.464 760.819C-347.735 760.819 -330.93 777.623 -330.93 798.353L-329.93 798.353C-329.93 777.071 -347.183 759.819 -368.464 759.819V760.819ZM1783 740.683C1790.14 740.683 1795.93 746.469 1795.93 753.607L1796.93 753.607C1796.93 745.917 1790.69 739.683 1783 739.683V740.683ZM1396.49 789.904C1410.36 789.904 1421.6 778.661 1421.6 764.793L1420.6 764.793C1420.6 778.109 1409.8 788.904 1396.49 788.904V789.904ZM-455.039 779.336C-455.039 769.109 -446.749 760.819 -436.522 760.819V759.819C-447.301 759.819 -456.039 768.557 -456.039 779.336L-455.039 779.336ZM1670.82 731.234C1670.82 736.452 1675.05 740.683 1680.27 740.683V739.683C1675.6 739.683 1671.82 735.9 1671.82 731.234L1670.82 731.234ZM1296.49 808.421C1296.49 798.194 1304.78 789.904 1315.01 789.904V788.904C1304.23 788.904 1295.49 797.642 1295.49 808.421L1296.49 808.421ZM-474.557 798.853C-463.778 798.853 -455.039 790.115 -455.039 779.336L-456.039 779.336C-456.039 789.563 -464.33 797.853 -474.557 797.853V798.853ZM1555.16 721.785C1549.94 721.785 1545.71 726.015 1545.71 731.234L1546.71 731.234C1546.71 726.567 1550.49 722.785 1555.16 722.785V721.785ZM1276.97 827.938C1287.75 827.938 1296.49 819.2 1296.49 808.421L1295.49 808.421C1295.49 818.648 1287.2 826.938 1276.97 826.938V827.938ZM-580.149 841.98C-580.149 818.162 -560.84 798.853 -537.021 798.853V797.853C-561.392 797.853 -581.149 817.61 -581.149 841.98H-580.149ZM1662.37 722.785C1667.03 722.785 1670.82 726.567 1670.82 731.234L1671.82 731.234C1671.82 726.015 1667.59 721.785 1662.37 721.785V722.785Z" fill="url(#paint5_linear_42_787)"/>
<path d="M1425.32 1020.43L1425.32 1020.93L1425.32 1020.93L1425.32 1020.43ZM1543.71 1020.43L1543.71 1019.93L1543.71 1019.93L1543.71 1020.43ZM1662.1 1020.43L1662.1 1020.93H1662.1V1020.43ZM-705.758 1020.43L-705.758 1020.93H-705.758V1020.43ZM-587.365 1020.43L-587.365 1019.93H-587.365V1020.43ZM-468.972 1020.43L-468.972 1020.93L-468.972 1020.93L-468.972 1020.43ZM-350.579 1020.43L-350.579 1019.93L-350.579 1019.93L-350.579 1020.43ZM-232.186 1020.43L-232.186 1020.93H-232.186V1020.43ZM-113.793 1020.43L-113.793 1020.93L-113.793 1020.93L-113.793 1020.43ZM4.60034 1020.43L4.60034 1019.93L4.60034 1019.93L4.60034 1020.43ZM122.993 1020.43L122.993 1020.93H122.993V1020.43ZM241.386 1020.43L241.386 1020.93L241.386 1020.93L241.386 1020.43ZM359.779 1020.43L359.779 1019.93L359.779 1019.93L359.779 1020.43ZM478.172 1020.43L478.172 1020.93H478.172L478.172 1020.43ZM596.565 1020.43L596.565 1019.93H596.565L596.565 1020.43ZM-804.783 1020.43L-804.783 1020.93L-804.783 1020.43ZM-350.579 927.962L-351.079 927.962L-350.579 927.962ZM-350.579 936.419L-351.079 936.419L-350.579 936.419ZM709.443 1020.43L709.443 1020.93L709.443 1020.43ZM1366.12 814.113H1408.77V813.113H1366.12V814.113ZM1307.42 933.662V872.809H1306.42V933.662H1307.42ZM1228.52 993.358H1247.73V992.358H1228.52V993.358ZM1114.26 913.387H1148.55V912.387H1114.26V913.387ZM1010.94 825.143H1026.02V824.143H1010.94V825.143ZM952.245 933.662V883.84H951.245V933.662H952.245ZM832.852 908.658V933.662H833.852V908.658H832.852ZM715.459 934.948V908.658H714.459V934.948H715.459ZM833.352 1019.93H800.445V1020.93H833.352V1019.93ZM951.745 1019.93H833.352V1020.93H951.745V1019.93ZM1070.14 1019.93H951.745V1020.93H1070.14V1019.93ZM1188.53 1019.93H1070.14V1020.93H1188.53V1019.93ZM1306.92 1019.93H1188.53V1020.93H1306.92V1019.93ZM1425.32 1019.93H1306.92V1020.93H1425.32V1019.93ZM1543.71 1019.93L1425.32 1019.93L1425.32 1020.93L1543.71 1020.93L1543.71 1019.93ZM1662.1 1019.93L1543.71 1019.93L1543.71 1020.93L1662.1 1020.93L1662.1 1019.93ZM1737.75 1019.93H1662.1V1020.93H1737.75V1019.93ZM1699.33 935.448H1737.75V934.448H1699.33V935.448ZM1602.91 1009.9H1624.87V1008.9H1602.91V1009.9ZM1543.21 905.9V950.208H1544.21V905.9H1543.21ZM1441.86 847.204H1484.51V846.204H1441.86V847.204ZM182.19 830.659H204.158V829.659H182.19V830.659ZM123.493 917.116V889.355H122.493V917.116H123.493ZM51.48 976.813H63.7969V975.813H51.48V976.813ZM-111.035 883.053H-42.2793V882.053H-111.035V883.053ZM-178.412 888.569H-116.55V887.569H-178.412V888.569ZM-291.382 996.116H-285.959V995.116H-291.382V996.116ZM-351.079 927.962L-351.079 936.419L-350.079 936.419L-350.079 927.962L-351.079 927.962ZM-464.835 869.265H-409.775V868.265H-464.835V869.265ZM-566.683 877.538H-473.108V876.538H-566.683V877.538ZM-646.561 836.174H-608.047V835.174H-646.561V836.174ZM-705.258 958.241V894.87H-706.258V958.241H-705.258ZM-804.783 1010.79H-757.807V1009.79H-804.783V1010.79ZM-705.758 1019.93L-804.783 1019.93L-804.783 1020.93L-705.758 1020.93L-705.758 1019.93ZM-587.365 1019.93H-705.758V1020.93H-587.365V1019.93ZM-468.972 1019.93L-587.365 1019.93L-587.365 1020.93L-468.972 1020.93L-468.972 1019.93ZM-350.579 1019.93L-468.972 1019.93L-468.972 1020.93L-350.579 1020.93L-350.579 1019.93ZM-232.186 1019.93L-350.579 1019.93L-350.579 1020.93L-232.186 1020.93L-232.186 1019.93ZM-113.793 1019.93H-232.186V1020.93H-113.793V1019.93ZM4.60034 1019.93L-113.793 1019.93L-113.793 1020.93L4.60034 1020.93L4.60034 1019.93ZM122.993 1019.93L4.60034 1019.93L4.60034 1020.93L122.993 1020.93L122.993 1019.93ZM241.386 1019.93H122.993V1020.93H241.386V1019.93ZM359.779 1019.93L241.386 1019.93L241.386 1020.93L359.779 1020.93L359.779 1019.93ZM478.172 1019.93L359.779 1019.93L359.779 1020.93L478.172 1020.93L478.172 1019.93ZM596.565 1019.93L478.172 1019.93L478.172 1020.93L596.565 1020.93L596.565 1019.93ZM709.443 1019.93L596.565 1019.93L596.565 1020.93L709.443 1020.93L709.443 1019.93ZM648.96 1009.9H709.443V1008.9H648.96V1009.9ZM505.748 905.114H544.17V904.114H505.748V905.114ZM387.356 849.962H450.596V848.962H387.356V849.962ZM278.614 905.114H332.203V904.114H278.614V905.114ZM1785.57 1010.79H1879.52V1009.79H1785.57V1010.79ZM1879.52 1019.93H1785.57V1020.93H1879.52V1019.93ZM1879.52 1020.93C1882.6 1020.93 1885.09 1018.44 1885.09 1015.36H1884.09C1884.09 1017.89 1882.05 1019.93 1879.52 1019.93V1020.93ZM1780 1015.36C1780 1018.44 1782.49 1020.93 1785.57 1020.93V1019.93C1783.04 1019.93 1781 1017.89 1781 1015.36H1780ZM1879.52 1010.79C1882.05 1010.79 1884.09 1012.84 1884.09 1015.36H1885.09C1885.09 1012.28 1882.6 1009.79 1879.52 1009.79V1010.79ZM1785.57 1009.79C1782.49 1009.79 1780 1012.28 1780 1015.36H1781C1781 1012.84 1783.04 1010.79 1785.57 1010.79V1009.79ZM278.614 904.114C258.33 904.114 241.886 887.671 241.886 867.386H240.886C240.886 888.223 257.778 905.114 278.614 905.114V904.114ZM359.279 877.038C359.279 891.992 347.157 904.114 332.203 904.114V905.114C347.709 905.114 360.279 892.544 360.279 877.038H359.279ZM387.356 848.962C371.85 848.962 359.279 861.532 359.279 877.038H360.279C360.279 862.084 372.402 849.962 387.356 849.962V848.962ZM478.672 877.038C478.672 861.532 466.102 848.962 450.596 848.962V849.962C465.55 849.962 477.672 862.084 477.672 877.038L478.672 877.038ZM505.748 904.114C490.795 904.114 478.672 891.992 478.672 877.038L477.672 877.038C477.672 892.544 490.242 905.114 505.748 905.114V904.114ZM597.065 957.009C597.065 927.796 573.383 904.114 544.17 904.114V905.114C572.831 905.114 596.065 928.348 596.065 957.009H597.065ZM648.96 1008.9C620.299 1008.9 597.065 985.67 597.065 957.009H596.065C596.065 986.222 619.747 1009.9 648.96 1009.9V1008.9ZM715.458 1014.92C715.458 1011.6 712.765 1008.9 709.443 1008.9V1009.9C712.213 1009.9 714.458 1012.15 714.458 1014.92H715.458ZM-810.355 1015.36C-810.355 1018.44 -807.861 1020.93 -804.783 1020.93L-804.783 1019.93C-807.308 1019.93 -809.355 1017.89 -809.355 1015.36H-810.355ZM-804.783 1009.79C-807.861 1009.79 -810.355 1012.28 -810.355 1015.36H-809.355C-809.355 1012.84 -807.308 1010.79 -804.783 1010.79V1009.79ZM-706.258 958.241C-706.258 986.711 -729.337 1009.79 -757.807 1009.79V1010.79C-728.785 1010.79 -705.258 987.263 -705.258 958.241H-706.258ZM-646.561 835.174C-679.531 835.174 -706.258 861.901 -706.258 894.87H-705.258C-705.258 862.453 -678.978 836.174 -646.561 836.174V835.174ZM-586.865 856.356C-586.865 844.657 -596.348 835.174 -608.047 835.174V836.174C-596.901 836.174 -587.865 845.21 -587.865 856.356L-586.865 856.356ZM-566.683 876.538C-577.829 876.538 -586.865 867.502 -586.865 856.356L-587.865 856.356C-587.865 868.055 -578.381 877.538 -566.683 877.538V876.538ZM-469.472 872.902C-469.472 874.91 -471.1 876.538 -473.108 876.538V877.538C-470.548 877.538 -468.472 875.462 -468.472 872.902L-469.472 872.902ZM-464.835 868.265C-467.396 868.265 -469.472 870.341 -469.472 872.902L-468.472 872.902C-468.472 870.893 -466.844 869.265 -464.835 869.265V868.265ZM-350.079 927.962C-350.079 894.992 -376.806 868.265 -409.775 868.265V869.265C-377.358 869.265 -351.079 895.544 -351.079 927.962L-350.079 927.962ZM-291.382 995.116C-323.799 995.116 -350.079 968.837 -350.079 936.419L-351.079 936.419C-351.079 969.389 -324.352 996.116 -291.382 996.116V995.116ZM-232.686 941.842C-232.686 971.265 -256.537 995.116 -285.959 995.116V996.116C-255.985 996.116 -231.686 971.817 -231.686 941.842H-232.686ZM-178.412 887.569C-208.387 887.569 -232.686 911.868 -232.686 941.842H-231.686C-231.686 912.42 -207.834 888.569 -178.412 888.569V887.569ZM-114.293 885.311C-114.293 886.558 -115.303 887.569 -116.55 887.569V888.569C-114.751 888.569 -113.293 887.11 -113.293 885.311H-114.293ZM-111.035 882.053C-112.834 882.053 -114.293 883.512 -114.293 885.311H-113.293C-113.293 884.064 -112.282 883.053 -111.035 883.053V882.053ZM5.10034 929.433C5.10034 903.266 -16.1122 882.053 -42.2793 882.053V883.053C-16.6645 883.053 4.10034 903.818 4.10034 929.433H5.10034ZM51.48 975.813C25.8652 975.813 5.10034 955.048 5.10034 929.433H4.10034C4.10034 955.6 25.3129 976.813 51.48 976.813V975.813ZM1781 977.691C1781 953.809 1761.63 934.448 1737.75 934.448V935.448C1761.08 935.448 1780 954.361 1780 977.691H1781ZM1737.75 1020.93C1761.63 1020.93 1781 1001.57 1781 977.691H1780C1780 1001.02 1761.08 1019.93 1737.75 1019.93V1020.93ZM709.443 1020.93C712.765 1020.93 715.458 1018.24 715.458 1014.92H714.458C714.458 1017.69 712.213 1019.93 709.443 1019.93L709.443 1020.93ZM714.459 934.948C714.459 982.437 752.956 1020.93 800.445 1020.93V1019.93C753.508 1019.93 715.459 981.885 715.459 934.948H714.459ZM774.155 848.962C741.186 848.962 714.459 875.689 714.459 908.658H715.459C715.459 876.241 741.738 849.962 774.155 849.962V848.962ZM833.852 908.658C833.852 875.689 807.125 848.962 774.155 848.962V849.962C806.572 849.962 832.852 876.241 832.852 908.658H833.852ZM892.548 992.358C860.131 992.358 833.852 966.079 833.852 933.662H832.852C832.852 966.631 859.579 993.358 892.548 993.358V992.358ZM951.245 933.662C951.245 966.079 924.965 992.358 892.548 992.358V993.358C925.518 993.358 952.245 966.631 952.245 933.662H951.245ZM122.493 917.116C122.493 949.533 96.214 975.813 63.7969 975.813V976.813C96.7663 976.813 123.493 950.086 123.493 917.116H122.493ZM1010.94 824.143C977.972 824.143 951.245 850.87 951.245 883.84H952.245C952.245 851.423 978.524 825.143 1010.94 825.143V824.143ZM204.158 830.659C224.443 830.659 240.886 847.102 240.886 867.386H241.886C241.886 846.55 224.995 829.659 204.158 829.659V830.659ZM1070.64 868.765C1070.64 844.121 1050.66 824.143 1026.02 824.143V825.143C1050.11 825.143 1069.64 844.673 1069.64 868.765H1070.64ZM182.19 829.659C149.22 829.659 122.493 856.386 122.493 889.355H123.493C123.493 856.938 149.773 830.659 182.19 830.659V829.659ZM1114.26 912.387C1090.17 912.387 1070.64 892.857 1070.64 868.765H1069.64C1069.64 893.409 1089.62 913.387 1114.26 913.387V912.387ZM1441.86 846.204C1433 846.204 1425.82 839.02 1425.82 830.158L1424.82 830.158C1424.82 839.572 1432.45 847.204 1441.86 847.204V846.204ZM1189.03 952.873C1189.03 930.513 1170.9 912.387 1148.55 912.387V913.387C1170.35 913.387 1188.03 931.066 1188.03 952.873H1189.03ZM1544.21 905.9C1544.21 872.931 1517.48 846.204 1484.51 846.204V847.204C1516.93 847.204 1543.21 873.483 1543.21 905.9H1544.21ZM1228.52 992.358C1206.71 992.358 1189.03 974.68 1189.03 952.873H1188.03C1188.03 975.232 1206.16 993.358 1228.52 993.358V992.358ZM1602.91 1008.9C1570.49 1008.9 1544.21 982.625 1544.21 950.208H1543.21C1543.21 983.177 1569.94 1009.9 1602.91 1009.9V1008.9ZM1306.42 933.662C1306.42 966.079 1280.14 992.358 1247.73 992.358V993.358C1280.7 993.358 1307.42 966.631 1307.42 933.662H1306.42ZM1661.6 972.176C1661.6 992.46 1645.16 1008.9 1624.87 1008.9V1009.9C1645.71 1009.9 1662.6 993.013 1662.6 972.176H1661.6ZM1408.77 814.113C1417.63 814.113 1424.82 821.297 1424.82 830.158L1425.82 830.158C1425.82 820.744 1418.19 813.113 1408.77 813.113V814.113ZM1699.33 934.448C1678.49 934.448 1661.6 951.34 1661.6 972.176H1662.6C1662.6 951.892 1679.05 935.448 1699.33 935.448V934.448ZM1366.12 813.113C1333.15 813.113 1306.42 839.839 1306.42 872.809H1307.42C1307.42 840.392 1333.7 814.113 1366.12 814.113V813.113Z" fill="url(#paint6_linear_42_787)"/>
<path d="M1720.38 1079.99L1720.38 1080.49L1720.38 1080.49L1720.38 1079.99ZM1604.85 1079.99L1604.85 1079.49H1604.85V1079.99ZM1489.32 1079.99L1489.32 1080.49H1489.32V1079.99ZM1373.79 1079.99L1373.79 1079.49L1373.79 1079.49L1373.79 1079.99ZM1258.26 1079.99L1258.26 1080.49L1258.26 1080.49L1258.26 1079.99ZM1142.73 1079.99L1142.73 1080.49H1142.73V1079.99ZM1027.2 1079.99L1027.2 1079.49L1027.2 1079.49L1027.2 1079.99ZM911.667 1079.99L911.667 1080.49L911.667 1080.49L911.667 1079.99ZM796.137 1079.99L796.137 1079.49L796.137 1079.49L796.137 1079.99ZM680.607 1079.99L680.607 1080.49H680.607L680.607 1079.99ZM565.076 1079.99L565.076 1079.49H565.076L565.076 1079.99ZM449.546 1079.99L449.546 1080.49L449.546 1080.49L449.546 1079.99ZM334.016 1079.99L334.016 1079.49L334.016 1079.49L334.016 1079.99ZM218.485 1079.99L218.485 1080.49L218.485 1080.49L218.485 1079.99ZM102.955 1079.99L102.955 1080.49H102.955V1079.99ZM-12.5755 1079.99L-12.5755 1079.49H-12.5755V1079.99ZM-128.106 1079.99L-128.106 1080.49H-128.106V1079.99ZM-243.636 1079.99L-243.636 1079.49H-243.636V1079.99ZM-359.167 1079.99L-359.167 1079.49H-359.167L-359.167 1079.99ZM-474.697 1079.99L-474.697 1080.49H-474.697L-474.697 1079.99ZM-590.228 1079.99L-590.228 1079.49H-590.228V1079.99ZM-705.758 1079.99L-705.758 1080.49H-705.758V1079.99ZM-804.783 1079.99L-804.783 1080.49L-804.783 1079.99ZM1819.41 1079.99L1819.41 1080.49L1819.41 1079.99ZM1200.49 947.929H1193.4V948.929H1200.49V947.929ZM1320.45 1063.49H1316.02V1064.49H1320.45V1063.49ZM1467.98 956.818H1427.13V957.818H1467.98V956.818ZM1571.07 999.488H1510.65V1000.49H1571.07V999.488ZM1719.23 1067.05H1638.63V1068.05H1719.23V1067.05ZM1721.53 1070.35H1819.41V1069.35H1721.53V1070.35ZM1819.41 1079.49L1720.38 1079.49L1720.38 1080.49L1819.41 1080.49L1819.41 1079.49ZM1604.85 1080.49L1720.38 1080.49L1720.38 1079.49L1604.85 1079.49L1604.85 1080.49ZM1489.32 1080.49H1604.85V1079.49H1489.32V1080.49ZM1373.79 1080.49L1489.32 1080.49L1489.32 1079.49L1373.79 1079.49L1373.79 1080.49ZM1258.26 1080.49L1373.79 1080.49L1373.79 1079.49L1258.26 1079.49L1258.26 1080.49ZM1142.73 1080.49H1258.26V1079.49H1142.73V1080.49ZM1027.2 1080.49L1142.73 1080.49L1142.73 1079.49L1027.2 1079.49L1027.2 1080.49ZM911.667 1080.49L1027.2 1080.49L1027.2 1079.49L911.667 1079.49L911.667 1080.49ZM796.137 1080.49L911.667 1080.49L911.667 1079.49L796.137 1079.49L796.137 1080.49ZM680.607 1080.49L796.137 1080.49L796.137 1079.49L680.607 1079.49L680.607 1080.49ZM565.076 1080.49H680.607V1079.49H565.076V1080.49ZM449.546 1080.49L565.076 1080.49L565.076 1079.49L449.546 1079.49L449.546 1080.49ZM334.016 1080.49L449.546 1080.49L449.546 1079.49L334.016 1079.49L334.016 1080.49ZM218.485 1080.49L334.016 1080.49L334.016 1079.49L218.485 1079.49L218.485 1080.49ZM102.955 1080.49H218.485V1079.49H102.955V1080.49ZM-12.5755 1080.49L102.955 1080.49L102.955 1079.49L-12.5755 1079.49L-12.5755 1080.49ZM-128.106 1080.49H-12.5755V1079.49H-128.106V1080.49ZM-243.636 1080.49L-128.106 1080.49L-128.106 1079.49L-243.636 1079.49L-243.636 1080.49ZM-359.167 1080.49H-243.636V1079.49H-359.167V1080.49ZM-474.697 1080.49L-359.167 1080.49L-359.167 1079.49L-474.697 1079.49L-474.697 1080.49ZM-590.228 1080.49L-474.697 1080.49L-474.697 1079.49L-590.228 1079.49L-590.228 1080.49ZM-705.758 1080.49H-590.228V1079.49H-705.758V1080.49ZM-804.783 1080.49L-705.758 1080.49L-705.758 1079.49L-804.783 1079.49L-804.783 1080.49ZM-757.807 1069.35H-804.783V1070.35H-757.807V1069.35ZM-645.342 963.93H-653.048V964.93H-645.342V963.93ZM-514.7 1074.16H-535.112V1075.16H-514.7V1074.16ZM-359.167 994.154H-434.694V995.154H-359.167V994.154ZM-263.193 994.154H-359.167V995.154H-263.193V994.154ZM-148.552 1033.27H-224.079V1034.27H-148.552V1033.27ZM-48.1336 1074.16H-107.66V1075.16H-48.1336V1074.16ZM74.5084 1003.04H22.9825V1004.04H74.5084V1003.04ZM208.707 1059.94H131.401V1060.94H208.707V1059.94ZM306.458 1040.38H228.264V1041.38H306.458V1040.38ZM448.657 985.265H361.573V986.265H448.657V985.265ZM548.186 983.487H450.435V984.487H548.186V983.487ZM629.937 949.707H581.966V950.707H629.937V949.707ZM775.691 1051.05H731.277V1052.05H775.691V1051.05ZM898.333 1010.16H816.583V1011.16H898.333V1010.16ZM1020.98 1036.82H925.002V1037.82H1020.98V1036.82ZM1092.06 1049.27H1033.42V1050.27H1092.06V1049.27ZM1092.06 1050.27C1120.32 1050.27 1143.23 1027.36 1143.23 999.099H1142.23C1142.23 1026.81 1119.77 1049.27 1092.06 1049.27V1050.27ZM1026.7 1043.55C1026.7 1047.26 1029.71 1050.27 1033.42 1050.27V1049.27C1030.26 1049.27 1027.7 1046.71 1027.7 1043.55H1026.7ZM1020.98 1037.82C1024.14 1037.82 1026.7 1040.39 1026.7 1043.55H1027.7C1027.7 1039.83 1024.69 1036.82 1020.98 1036.82V1037.82ZM911.167 1023.99C911.167 1031.63 917.361 1037.82 925.002 1037.82V1036.82C917.913 1036.82 912.167 1031.08 912.167 1023.99H911.167ZM898.333 1011.16C905.421 1011.16 911.167 1016.9 911.167 1023.99H912.167C912.167 1016.35 905.974 1010.16 898.333 1010.16V1011.16ZM796.637 1031.1C796.637 1020.09 805.567 1011.16 816.583 1011.16V1010.16C805.015 1010.16 795.637 1019.53 795.637 1031.1L796.637 1031.1ZM775.691 1052.05C787.259 1052.05 796.637 1042.67 796.637 1031.1L795.637 1031.1C795.637 1042.12 786.707 1051.05 775.691 1051.05V1052.05ZM680.107 1000.88C680.107 1029.14 703.016 1052.05 731.277 1052.05V1051.05C703.569 1051.05 681.107 1028.59 681.107 1000.88H680.107ZM629.937 950.707C657.645 950.707 680.107 973.169 680.107 1000.88H681.107C681.107 972.616 658.197 949.707 629.937 949.707V950.707ZM-148.552 1034.27C-137.536 1034.27 -128.606 1043.2 -128.606 1054.21H-127.606C-127.606 1042.65 -136.984 1033.27 -148.552 1033.27V1034.27ZM-244.136 1014.21C-244.136 1025.29 -235.156 1034.27 -224.079 1034.27V1033.27C-234.604 1033.27 -243.136 1024.74 -243.136 1014.21L-244.136 1014.21ZM-263.193 995.154C-252.668 995.154 -244.136 1003.69 -244.136 1014.21L-243.136 1014.21C-243.136 1003.13 -252.116 994.154 -263.193 994.154V995.154ZM-474.197 1034.66C-474.197 1012.84 -456.511 995.154 -434.694 995.154V994.154C-457.063 994.154 -475.197 1012.29 -475.197 1034.66H-474.197ZM-514.7 1075.16C-492.331 1075.16 -474.197 1057.03 -474.197 1034.66H-475.197C-475.197 1056.47 -492.883 1074.16 -514.7 1074.16V1075.16ZM-590.728 1019.54C-590.727 1050.26 -565.828 1075.16 -535.112 1075.16V1074.16C-565.275 1074.16 -589.727 1049.71 -589.728 1019.54L-590.728 1019.54ZM-645.342 964.93C-615.179 964.93 -590.728 989.382 -590.728 1019.54L-589.728 1019.54C-589.728 988.829 -614.627 963.93 -645.342 963.93V964.93ZM-705.258 1017.47C-705.258 988.633 -681.879 964.93 -653.048 964.93V963.93C-682.439 963.93 -706.258 988.089 -706.258 1017.47H-705.258ZM-757.807 1070.35C-728.781 1070.35 -705.258 1046.49 -705.258 1017.47H-706.258C-706.258 1045.95 -729.341 1069.35 -757.807 1069.35V1070.35ZM-809.356 1074.92C-809.356 1072.4 -807.308 1070.35 -804.783 1070.35V1069.35C-807.861 1069.35 -810.356 1071.84 -810.356 1074.92H-809.356ZM-804.783 1079.49C-807.308 1079.49 -809.356 1077.45 -809.356 1074.92H-810.356C-810.356 1078 -807.861 1080.49 -804.783 1080.49L-804.783 1079.49ZM565.576 967.097C565.576 958.045 572.914 950.707 581.966 950.707V949.707C572.362 949.707 564.576 957.492 564.576 967.097H565.576ZM1823.98 1074.92C1823.98 1077.45 1821.93 1079.49 1819.41 1079.49L1819.41 1080.49C1822.48 1080.49 1824.98 1078 1824.98 1074.92H1823.98ZM548.186 984.487C557.791 984.487 565.576 976.701 565.576 967.097H564.576C564.576 976.149 557.238 983.487 548.186 983.487V984.487ZM1819.41 1070.35C1821.93 1070.35 1823.98 1072.4 1823.98 1074.92H1824.98C1824.98 1071.84 1822.48 1069.35 1819.41 1069.35V1070.35ZM450.046 984.876C450.046 984.661 450.22 984.487 450.435 984.487V983.487C449.668 983.487 449.046 984.109 449.046 984.876H450.046ZM1719.88 1068.7C1719.88 1069.61 1720.62 1070.35 1721.53 1070.35V1069.35C1721.17 1069.35 1720.88 1069.06 1720.88 1068.7H1719.88ZM448.657 986.265C449.424 986.265 450.046 985.643 450.046 984.876H449.046C449.046 985.091 448.872 985.265 448.657 985.265V986.265ZM1719.23 1068.05C1719.59 1068.05 1719.88 1068.34 1719.88 1068.7H1720.88C1720.88 1067.79 1720.14 1067.05 1719.23 1067.05V1068.05ZM334.516 1013.32C334.516 998.379 346.63 986.265 361.573 986.265V985.265C346.077 985.265 333.516 997.826 333.516 1013.32L334.516 1013.32ZM1604.35 1033.77C1604.35 1052.7 1619.7 1068.05 1638.63 1068.05V1067.05C1620.25 1067.05 1605.35 1052.15 1605.35 1033.77H1604.35ZM306.458 1041.38C321.954 1041.38 334.516 1028.82 334.516 1013.32L333.516 1013.32C333.516 1028.27 321.402 1040.38 306.458 1040.38V1041.38ZM1571.07 1000.49C1589.45 1000.49 1604.35 1015.39 1604.35 1033.77H1605.35C1605.35 1014.84 1590 999.488 1571.07 999.488V1000.49ZM218.985 1050.66C218.985 1045.53 223.139 1041.38 228.264 1041.38V1040.38C222.587 1040.38 217.985 1044.98 217.985 1050.66H218.985ZM1488.82 978.653C1488.82 990.712 1498.6 1000.49 1510.65 1000.49V999.488C1499.15 999.488 1489.82 990.16 1489.82 978.653H1488.82ZM208.707 1060.94C214.383 1060.94 218.985 1056.33 218.985 1050.66H217.985C217.985 1055.78 213.831 1059.94 208.707 1059.94V1060.94ZM1467.98 957.818C1479.49 957.818 1488.82 967.146 1488.82 978.653H1489.82C1489.82 966.594 1480.04 956.818 1467.98 956.818V957.818ZM102.455 1031.99C102.455 1047.98 115.415 1060.94 131.401 1060.94V1059.94C115.967 1059.94 103.455 1047.42 103.455 1031.99H102.455ZM1374.29 1010.66C1374.29 981.474 1397.94 957.818 1427.13 957.818V956.818C1397.39 956.818 1373.29 980.922 1373.29 1010.66L1374.29 1010.66ZM74.5084 1004.04C89.9428 1004.04 102.455 1016.56 102.455 1031.99H103.455C103.455 1016 90.4951 1003.04 74.5084 1003.04V1004.04ZM1320.45 1064.49C1350.19 1064.49 1374.29 1040.39 1374.29 1010.66L1373.29 1010.66C1373.29 1039.84 1349.63 1063.49 1320.45 1063.49V1064.49ZM-12.0755 1039.1C-12.0755 1019.74 3.62051 1004.04 22.9825 1004.04V1003.04C3.06822 1003.04 -13.0755 1019.19 -13.0755 1039.1L-12.0755 1039.1ZM1257.76 1006.21C1257.76 1038.39 1283.84 1064.49 1316.02 1064.49V1063.49C1284.4 1063.49 1258.76 1037.84 1258.76 1006.21H1257.76ZM-48.1336 1075.16C-28.2192 1075.16 -12.0755 1059.02 -12.0755 1039.1L-13.0755 1039.1C-13.0755 1058.46 -28.7715 1074.16 -48.1336 1074.16V1075.16ZM1193.4 947.929C1165.14 947.929 1142.23 970.838 1142.23 999.099H1143.23C1143.23 971.391 1165.69 948.929 1193.4 948.929V947.929ZM-128.606 1054.21C-128.606 1065.78 -119.228 1075.16 -107.66 1075.16V1074.16C-118.676 1074.16 -127.606 1065.23 -127.606 1054.21H-128.606ZM1200.49 948.929C1232.12 948.929 1257.76 974.584 1257.76 1006.21H1258.76C1258.76 974.032 1232.67 947.929 1200.49 947.929V948.929Z" fill="url(#paint7_linear_42_787)"/>
</g>
</g>
<defs>
<filter id="filter0_d_42_787" x="1246.89" y="-26.0927" width="959.214" height="1042.21" filterUnits="userSpaceOnUse" color-interpolation-filters="sRGB">
<feFlood flood-opacity="0" result="BackgroundImageFix"/>
<feColorMatrix in="SourceAlpha" type="matrix" values="0 0 0 0 0 0 0 0 0 0 0 0 0 0 0 0 0 0 127 0" result="hardAlpha"/>
<feOffset dy="4.01427"/>
<feGaussianBlur stdDeviation="15.0535"/>
<feComposite in2="hardAlpha" operator="out"/>
<feColorMatrix type="matrix" values="0 0 0 0 0 0 0 0 0 0 0 0 0 0 0 0 0 0 0.1 0"/>
<feBlend mode="normal" in2="BackgroundImageFix" result="effect1_dropShadow_42_787"/>
<feBlend mode="normal" in="SourceGraphic" in2="effect1_dropShadow_42_787" result="shape"/>
</filter>
<linearGradient id="paint0_linear_42_787" x1="0" y1="0" x2="218.515" y2="1245.53" gradientUnits="userSpaceOnUse">
<stop stop-color="#5348D7"/>
<stop offset="1" stop-color="#2565F4"/>
</linearGradient>
<linearGradient id="paint1_linear_42_787" x1="921.909" y1="23.8464" x2="921.909" y2="286.658" gradientUnits="userSpaceOnUse">
<stop stop-color="white"/>
<stop offset="1" stop-color="#4C6499"/>
</linearGradient>
<linearGradient id="paint2_linear_42_787" x1="615.107" y1="214.658" x2="615.107" y2="473.87" gradientUnits="userSpaceOnUse">
<stop stop-color="white"/>
<stop offset="1" stop-color="#4C6499"/>
</linearGradient>
<linearGradient id="paint3_linear_42_787" x1="739.68" y1="365.861" x2="739.68" y2="635.873" gradientUnits="userSpaceOnUse">
<stop stop-color="white"/>
<stop offset="1" stop-color="#4C6499"/>
</linearGradient>
<linearGradient id="paint4_linear_42_787" x1="559.334" y1="527.873" x2="559.334" y2="794.285" gradientUnits="userSpaceOnUse">
<stop stop-color="white"/>
<stop offset="1" stop-color="#4C6499"/>
</linearGradient>
<linearGradient id="paint5_linear_42_787" x1="607.889" y1="722.285" x2="607.889" y2="885.608" gradientUnits="userSpaceOnUse">
<stop stop-color="white"/>
<stop offset="1" stop-color="#4C6499"/>
</linearGradient>
<linearGradient id="paint6_linear_42_787" x1="537.369" y1="813.613" x2="537.369" y2="1020.43" gradientUnits="userSpaceOnUse">
<stop stop-color="white"/>
<stop offset="1" stop-color="#4C6499"/>
</linearGradient>
<linearGradient id="paint7_linear_42_787" x1="507.311" y1="948.429" x2="507.311" y2="1079.99" gradientUnits="userSpaceOnUse">
<stop stop-color="white"/>
<stop offset="1" stop-color="#4C6499"/>
</linearGradient>
<clipPath id="clip0_42_787">
<rect width="1512" height="982" fill="white"/>
</clipPath>
</defs>
</svg>
