<svg width="369" height="106" viewBox="0 0 369 106" fill="none" xmlns="http://www.w3.org/2000/svg">
<path d="M105.72 60.58V34.46H118.33V80H106.22V71.68H105.75C104.758 74.3031 102.971 76.5509 100.64 78.11C98.0734 79.7782 95.0599 80.6257 92 80.54C89.1943 80.5938 86.4275 79.8779 84 78.47C81.6708 77.0627 79.7961 75.0144 78.6 72.57C77.2278 69.7181 76.5428 66.5844 76.6 63.42V34.42H89.16V61.17C89.0512 63.4898 89.8226 65.765 91.32 67.54C92.0427 68.3157 92.9243 68.9262 93.9046 69.3301C94.8848 69.7339 95.9406 69.9215 97 69.88C98.4806 69.9022 99.9439 69.5588 101.26 68.88C102.608 68.1628 103.725 67.0774 104.48 65.75C105.363 64.1743 105.792 62.3848 105.72 60.58Z" fill="#30104C"/>
<path d="M128.4 80V34.46H140.63V42.4H141.1C141.745 39.8649 143.212 37.6146 145.27 36C147.213 34.5526 149.577 33.7832 152 33.81C152.668 33.8144 153.336 33.8545 154 33.93C154.65 33.9965 155.295 34.1067 155.93 34.26V45.45C155.124 45.2279 154.301 45.0707 153.47 44.98C152.516 44.8468 151.553 44.7767 150.59 44.77C148.848 44.7338 147.126 45.147 145.59 45.97C144.165 46.7472 142.979 47.8986 142.16 49.3C141.336 50.8017 140.935 52.4986 141 54.21V80H128.4Z" fill="#30104C"/>
<path d="M162.48 80V34.46H174.71V42.4H175.18C175.825 39.8623 177.296 37.6109 179.36 36C181.308 34.5479 183.681 33.7814 186.11 33.82C186.778 33.8244 187.446 33.8645 188.11 33.94C188.76 34.0064 189.405 34.1167 190.04 34.27V45.45C189.234 45.2279 188.411 45.0707 187.58 44.98C186.629 44.8472 185.67 44.777 184.71 44.77C182.968 44.7315 181.245 45.1449 179.71 45.97C178.284 46.749 177.095 47.8998 176.27 49.3C175.412 50.7918 174.976 52.4892 175.01 54.21V80H162.48Z" fill="#30104C"/>
<path d="M209.45 80.7999C206.785 80.8516 204.139 80.3334 201.69 79.2799C199.496 78.3228 197.627 76.7491 196.31 74.7499C194.919 72.498 194.223 69.8855 194.31 67.2399C194.238 65.0363 194.719 62.8498 195.71 60.8799C196.601 59.1975 197.905 57.7693 199.5 56.7299C201.194 55.6502 203.051 54.85 205 54.3599C207.113 53.8141 209.267 53.4396 211.44 53.2399C214.107 52.9599 216.24 52.6966 217.84 52.4499C219.079 52.3344 220.279 51.956 221.36 51.3399C221.718 51.1022 222.008 50.7751 222.201 50.391C222.394 50.0069 222.483 49.5791 222.46 49.1499V48.9999C222.506 48.1889 222.372 47.3778 222.066 46.6253C221.759 45.8729 221.29 45.1981 220.69 44.6499C219.27 43.5373 217.49 42.9889 215.69 43.1099C213.769 43.0103 211.867 43.5366 210.27 44.6099C208.988 45.5223 208.051 46.8398 207.61 48.3499L195.94 47.3499C196.484 44.7002 197.688 42.2306 199.44 40.1699C201.265 38.0837 203.577 36.4797 206.17 35.4999C209.23 34.3465 212.481 33.7865 215.75 33.8499C218.201 33.8421 220.643 34.1411 223.02 34.7399C225.23 35.2811 227.327 36.2124 229.21 37.4899C231.001 38.7193 232.469 40.3624 233.49 42.2799C234.594 44.4441 235.134 46.8517 235.06 49.2799V79.9999H223.06V73.6399H222.7C221.969 75.0609 220.975 76.33 219.77 77.3799C218.478 78.4986 216.98 79.3545 215.36 79.8999C213.454 80.5273 211.456 80.8315 209.45 80.7999ZM213.06 72.0999C214.772 72.1424 216.468 71.7647 218 70.9999C219.364 70.3156 220.52 69.28 221.35 67.9999C222.164 66.719 222.585 65.2275 222.56 63.7099V58.8599C222.058 59.167 221.517 59.4027 220.95 59.5599C220.27 59.7699 219.5 59.9499 218.66 60.1199C217.82 60.2899 216.96 60.4399 216.11 60.5699L213.8 60.9099C212.469 61.0743 211.165 61.4105 209.92 61.9099C208.911 62.3151 208.022 62.9728 207.34 63.8199C206.707 64.6885 206.386 65.7459 206.43 66.8199C206.387 67.579 206.536 68.3366 206.865 69.022C207.194 69.7075 207.691 70.2985 208.31 70.7399C209.71 71.6831 211.373 72.1591 213.06 72.0999Z" fill="#30104C"/>
<path d="M255.81 53.65V80H243.19V34.46H255.19V42.46H255.73C256.687 39.8685 258.464 37.66 260.79 36.17C263.37 34.5591 266.37 33.7483 269.41 33.84C272.3 33.7712 275.154 34.4865 277.67 35.91C280.027 37.3116 281.93 39.3637 283.15 41.82C284.526 44.6803 285.201 47.827 285.12 51V80H272.51V53.24C272.668 50.8685 271.901 48.5281 270.37 46.71C269.607 45.9113 268.68 45.287 267.653 44.8797C266.626 44.4723 265.523 44.2917 264.42 44.35C262.856 44.3212 261.312 44.7004 259.94 45.45C258.646 46.1881 257.601 47.2953 256.94 48.63C256.174 50.1914 255.787 51.9111 255.81 53.65Z" fill="#30104C"/>
<path d="M317.56 34.4599V43.9399H290.17V34.4599H317.56ZM296.39 23.5699H309V65.9999C308.949 66.9333 309.131 67.8647 309.53 68.7099C309.858 69.2951 310.377 69.7503 311 69.9999C311.713 70.2648 312.469 70.3937 313.23 70.3799C313.827 70.3813 314.423 70.3277 315.01 70.2199L316.37 69.9699L318.37 79.3499C317.74 79.5499 316.85 79.7799 315.71 80.0499C314.335 80.3457 312.936 80.5098 311.53 80.5399C308.807 80.7125 306.078 80.2964 303.53 79.3199C301.364 78.4687 299.52 76.9573 298.26 74.9999C296.919 72.7724 296.268 70.1972 296.39 67.5999V23.5699Z" fill="#30104C"/>
<path d="M331.13 80.28C334.411 80.28 337.07 77.6206 337.07 74.34C337.07 71.0594 334.411 68.4 331.13 68.4C327.849 68.4 325.19 71.0594 325.19 74.34C325.19 77.6206 327.849 80.28 331.13 80.28Z" fill="#2565F4"/>
<path d="M48.64 80.91C44.2764 81.0342 39.9615 79.9658 36.16 77.82C32.7153 75.7904 29.9356 72.8023 28.16 69.22C26.2471 65.2714 25.2945 60.9267 25.38 56.54C25.2846 52.1233 26.2481 47.748 28.19 43.78C29.979 40.2096 32.7557 37.2281 36.19 35.19C39.9614 33.0506 44.2456 31.9821 48.58 32.1C52.3144 32.0132 56.0191 32.7829 59.41 34.35C62.393 35.7379 64.9385 37.9168 66.77 40.65C68.6258 43.4985 69.6635 46.802 69.77 50.2H57.38C57.1273 48.0407 56.1551 46.0294 54.62 44.49C53.8424 43.7573 52.9259 43.1878 51.9245 42.8151C50.9232 42.4424 49.8574 42.2741 48.79 42.32C46.8852 42.2932 45.0227 42.8825 43.48 44C41.8962 45.2244 40.69 46.8708 40 48.75C39.0989 51.18 38.6679 53.7591 38.73 56.35C38.6649 58.972 39.0888 61.5832 39.98 64.05C40.6715 65.9639 41.8964 67.6399 43.51 68.88C45.0557 69.997 46.9233 70.5798 48.83 70.54C50.2358 70.5669 51.6267 70.2475 52.88 69.61C54.0971 68.9943 55.1315 68.0703 55.88 66.93C56.7082 65.639 57.2409 64.1809 57.44 62.66H69.75C69.6223 66.0394 68.6084 69.326 66.81 72.19C65.0279 74.9507 62.5241 77.1709 59.57 78.61C56.156 80.2188 52.4129 81.0065 48.64 80.91Z" fill="#30104C"/>
<path d="M43.23 47.5201C43.2911 42.63 41.9442 37.8257 39.35 33.6801C36.5296 34.7168 33.9845 36.3862 31.91 38.5601C33.56 39.5601 34.18 43.8901 34.18 43.8901C35.6 51.7501 30.38 54.5701 30.38 54.5701C28.4235 55.7515 26.7479 57.3452 25.47 59.2401C25.47 59.4601 25.55 60.1301 25.6 60.5201C25.9546 63.9508 27.017 67.2708 28.72 70.2701C29.5986 71.8103 30.6706 73.2319 31.91 74.5001C32.18 74.7701 32.64 75.2201 32.91 75.5001L32.47 74.7301C32.0505 74.0532 31.7147 73.3279 31.47 72.5701C31.1102 71.6964 30.9497 70.7535 31 69.8101C31.47 64.0001 37 60.4001 37 60.4001C38.8786 58.8058 40.4032 56.8365 41.4761 54.6184C42.5489 52.4004 43.1463 49.9825 43.23 47.5201Z" fill="#2565F4"/>
</svg>
